<svg xmlns="http://www.w3.org/2000/svg" width="367.4074401855469" height="265.38677978515625" viewBox="-18.73272705078125 -35.65472412109375 367.4074401855469 265.38677978515625"><title>Neo4j Graph Visualization</title><desc>Created using Neo4j (http://www.neo4j.com/)</desc><g class="layer relationships"><g class="relationship" transform="translate(39.39554887730603 186.67261357174704) rotate(365.6161679446668)"><path class="outline" fill="#A5ABB6" stroke="none" d="M 25 0.5 L 44.88640629520843 0.5 L 44.88640629520843 -0.5 L 25 -0.5 Z M 91.77703129520843 0.5 L 111.66343759041686 0.5 L 111.66343759041686 3.5 L 118.66343759041686 0 L 111.66343759041686 -3.5 L 111.66343759041686 -0.5 L 91.77703129520843 -0.5 Z"/><text text-anchor="middle" pointer-events="none" font-size="8px" fill="#000000" x="68.33171879520843" y="3" font-family="sans-serif">DIRECTED</text></g><g class="relationship" transform="translate(319.6746988364739 70.73175776380798) rotate(189.94902577499658)"><path class="outline" fill="#A5ABB6" stroke="none" d="M 25 0.5 L 37.93100639286841 0.5 L 37.93100639286841 -0.5 L 25 -0.5 Z M 84.82163139286841 0.5 L 97.75263778573682 0.5 L 97.75263778573682 3.5 L 104.75263778573682 0 L 97.75263778573682 -3.5 L 97.75263778573682 -0.5 L 84.82163139286841 -0.5 Z"/><text text-anchor="middle" pointer-events="none" font-size="8px" fill="#000000" x="61.37631889286841" y="3" transform="rotate(180 61.37631889286841 0)" font-family="sans-serif">DIRECTED</text></g><g class="relationship" transform="translate(319.6746988364739 70.73175776380798) rotate(496.56541046571226)"><path class="outline" fill="#A5ABB6" stroke="none" d="M 25 0.5 L 67.59677928654338 0.5 L 67.59677928654338 -0.5 L 25 -0.5 Z M 114.48740428654338 0.5 L 157.08418357308676 0.5 L 157.08418357308676 3.5 L 164.08418357308676 0 L 157.08418357308676 -3.5 L 157.08418357308676 -0.5 L 114.48740428654338 -0.5 Z"/><text text-anchor="middle" pointer-events="none" font-size="8px" fill="#000000" x="91.04209178654338" y="3" transform="rotate(180 91.04209178654338 0)" font-family="sans-serif">DIRECTED</text></g><g class="relationship" transform="translate(319.6746988364739 70.73175776380798) rotate(200.54538380874988)"><path class="outline" fill="#A5ABB6" stroke="none" d="M 24.018736134675446,6.953439040707552 L 24.277555179777966,5.987513214418485 A 254.61639084685166 254.61639084685166 0 0 0 69.91016379725055,13.855469528499412 L 69.83056576956054,14.852296571665818 A 255.61639084685166 255.61639084685166 0 0 1 24.018736134675446,6.953439040707552 Z M 105.64311638770754,15.195044897912737 L 105.58261169937256,14.196876984839236 A 254.61639084685166 254.61639084685166 0 0 0 151.35745013541228,7.203746644985925 L 150.63659720517808,4.2916389799136345 L 158.27251017561997,6.007107751951539 L 152.31858737572452,11.086556865082311 L 151.59773444549032,8.174449200010022 A 255.61639084685166 255.61639084685166 0 0 1 105.64311638770754,15.195044897912737"/><text text-anchor="middle" pointer-events="none" font-size="8px" fill="#000000" x="87.7356160153547" y="18.151673229161958" transform="rotate(180 87.7356160153547 15.151673229161958)" font-family="sans-serif">WROTE</text></g><g class="relationship" transform="translate(319.6746988364739 70.73175776380798) rotate(537.9666474891336)"><path class="outline" fill="#A5ABB6" stroke="none" d="M 25 0.5 L 63.25024935359062 0.5 L 63.25024935359062 -0.5 L 25 -0.5 Z M 110.14087435359062 0.5 L 148.39112370718124 0.5 L 148.39112370718124 3.5 L 155.39112370718124 0 L 148.39112370718124 -3.5 L 148.39112370718124 -0.5 L 110.14087435359062 -0.5 Z"/><text text-anchor="middle" pointer-events="none" font-size="8px" fill="#000000" x="86.69556185359062" y="3" transform="rotate(180 86.69556185359062 0)" font-family="sans-serif">DIRECTED</text></g><g class="relationship" transform="translate(319.6746988364739 70.73175776380798) rotate(200.54538380874988)"><path class="outline" fill="#A5ABB6" stroke="none" d="M 24.018736134675446,-6.953439040707552 L 24.277555179777966,-5.987513214418485 A 254.61639084685166 254.61639084685166 0 0 1 61.958570403403996,-13.094825773443404 L 61.847742676135724,-14.088665405813003 A 255.61639084685166 255.61639084685166 0 0 0 24.018736134675446,-6.953439040707552 Z M 113.6390927226233,-14.584340755267391 L 113.54730687775364,-13.588561985318165 A 254.61639084685166 254.61639084685166 0 0 1 151.35745013541228,-7.203746644985925 L 150.63659720517808,-4.2916389799136345 L 158.27251017561997,-6.007107751951539 L 152.31858737572452,-11.086556865082311 L 151.59773444549032,-8.174449200010022 A 255.61639084685166 255.61639084685166 0 0 0 113.6390927226233,-14.584340755267391"/><text text-anchor="middle" pointer-events="none" font-size="8px" fill="#000000" x="87.73561601535467" y="-12.151673229161958" transform="rotate(180 87.73561601535467 -15.151673229161958)" font-family="sans-serif">PRODUCED</text></g><g class="relationship" transform="translate(319.6746988364739 70.73175776380798) rotate(519.5749645491912)"><path class="outline" fill="#A5ABB6" stroke="none" d="M 25 0.5 L 49.319980469280196 0.5 L 49.319980469280196 -0.5 L 25 -0.5 Z M 96.2106054692802 0.5 L 120.53058593856039 0.5 L 120.53058593856039 3.5 L 127.53058593856039 0 L 120.53058593856039 -3.5 L 120.53058593856039 -0.5 L 96.2106054692802 -0.5 Z"/><text text-anchor="middle" pointer-events="none" font-size="8px" fill="#000000" x="72.7652929692802" y="3" transform="rotate(180 72.7652929692802 0)" font-family="sans-serif">DIRECTED</text></g><g class="relationship" transform="translate(10.267273829572403 80.09750920912032) rotate(395.028440035378)"><path class="outline" fill="#A5ABB6" stroke="none" d="M 25 0.5 L 78.14016125040234 0.5 L 78.14016125040234 -0.5 L 25 -0.5 Z M 125.03078625040234 0.5 L 178.1709475008047 0.5 L 178.1709475008047 3.5 L 185.1709475008047 0 L 178.1709475008047 -3.5 L 178.1709475008047 -0.5 L 125.03078625040234 -0.5 Z"/><text text-anchor="middle" pointer-events="none" font-size="8px" fill="#000000" x="101.58547375040234" y="3" font-family="sans-serif">DIRECTED</text></g><g class="relationship" transform="translate(10.267273829572403 80.09750920912032) rotate(332.0651845073197)"><path class="outline" fill="#A5ABB6" stroke="none" d="M 24.018736134675446,6.953439040707552 L 24.277555179777966,5.987513214418485 A 204.08178466878132 204.08178466878132 0 0 0 57.02601757793996,11.951985506008555 L 56.927665879059994,12.947137224756716 A 205.08178466878132 205.08178466878132 0 0 1 24.018736134675446,6.953439040707552 Z M 92.74066548449699,13.343972304788508 L 92.6643892920541,12.346885577133179 A 204.08178466878132 204.08178466878132 0 0 0 125.53697624626209,7.109544066500297 L 124.82492100065102,4.195272746393373 L 132.45561853411343,5.93379371342561 L 126.48638324041019,10.995239159976196 L 125.77432799479912,8.080967839869272 A 205.08178466878132 205.08178466878132 0 0 1 92.74066548449699,13.343972304788508"/><text text-anchor="middle" pointer-events="none" font-size="8px" fill="#000000" x="74.83102630226475" y="16.428872956495923" font-family="sans-serif">WROTE</text></g><g class="relationship" transform="translate(10.267273829572403 80.09750920912032) rotate(350.0730461434756)"><path class="outline" fill="#A5ABB6" stroke="none" d="M 25 0.5 L 65.2378358943254 0.5 L 65.2378358943254 -0.5 L 25 -0.5 Z M 112.1284608943254 0.5 L 152.3662967886508 0.5 L 152.3662967886508 3.5 L 159.3662967886508 0 L 152.3662967886508 -3.5 L 152.3662967886508 -0.5 L 112.1284608943254 -0.5 Z"/><text text-anchor="middle" pointer-events="none" font-size="8px" fill="#000000" x="88.6831483943254" y="3" font-family="sans-serif">DIRECTED</text></g><g class="relationship" transform="translate(10.267273829572403 80.09750920912032) rotate(358.68453054156134)"><path class="outline" fill="#A5ABB6" stroke="none" d="M 25 0.5 L 37.636651219233045 0.5 L 37.636651219233045 -0.5 L 25 -0.5 Z M 84.52727621923304 0.5 L 97.16392743846609 0.5 L 97.16392743846609 3.5 L 104.16392743846609 0 L 97.16392743846609 -3.5 L 97.16392743846609 -0.5 L 84.52727621923304 -0.5 Z"/><text text-anchor="middle" pointer-events="none" font-size="8px" fill="#000000" x="61.081963719233045" y="3" font-family="sans-serif">DIRECTED</text></g><g class="relationship" transform="translate(10.267273829572403 80.09750920912032) rotate(374.76211435370294)"><path class="outline" fill="#A5ABB6" stroke="none" d="M 25 0.5 L 59.129073155169124 0.5 L 59.129073155169124 -0.5 L 25 -0.5 Z M 106.01969815516912 0.5 L 140.14877131033825 0.5 L 140.14877131033825 3.5 L 147.14877131033825 0 L 140.14877131033825 -3.5 L 140.14877131033825 -0.5 L 106.01969815516912 -0.5 Z"/><text text-anchor="middle" pointer-events="none" font-size="8px" fill="#000000" x="82.57438565516912" y="3" font-family="sans-serif">DIRECTED</text></g><g class="relationship" transform="translate(10.267273829572403 80.09750920912032) rotate(332.0651845073197)"><path class="outline" fill="#A5ABB6" stroke="none" d="M 24.018736134675446,-6.953439040707552 L 24.277555179777966,-5.987513214418485 A 204.08178466878132 204.08178466878132 0 0 1 49.097769398373686,-11.011502228710725 L 48.96056931235112,-12.002045582832807 A 205.08178466878132 205.08178466878132 0 0 0 24.018736134675446,-6.953439040707552 Z M 100.72674792804472,-12.57565393343802 L 100.61153077135945,-11.582313605652331 A 204.08178466878132 204.08178466878132 0 0 1 125.53697624626209,-7.109544066500297 L 124.82492100065102,-4.195272746393373 L 132.45561853411343,-5.93379371342561 L 126.48638324041019,-10.995239159976196 L 125.77432799479912,-8.080967839869272 A 205.08178466878132 205.08178466878132 0 0 0 100.72674792804472,-12.57565393343802"/><text text-anchor="middle" pointer-events="none" font-size="8px" fill="#000000" x="74.83102630226466" y="-10.428872956495923" font-family="sans-serif">PRODUCED</text></g><g class="relationship" transform="translate(26.63326627096272 -6.654722420977805) rotate(366.22716754254276)"><path class="outline" fill="#A5ABB6" stroke="none" d="M 25 0.5 L 34.473033520823826 0.5 L 34.473033520823826 -0.5 L 25 -0.5 Z M 81.36365852082383 0.5 L 90.83669204164765 0.5 L 90.83669204164765 3.5 L 97.83669204164765 0 L 90.83669204164765 -3.5 L 90.83669204164765 -0.5 L 81.36365852082383 -0.5 Z"/><text text-anchor="middle" pointer-events="none" font-size="8px" fill="#000000" x="57.918346020823826" y="3" font-family="sans-serif">DIRECTED</text></g></g><g class="layer nodes"><g class="node" transform="translate(39.39554887730603,186.67261357174704)"><circle class="outline" cx="0" cy="0" r="25" fill="#F16667" stroke="#eb2728" stroke-width="2px"/><text text-anchor="middle" pointer-events="none" font-family="sans-serif" dy="1.5625" font-size="25" fill="#FFFFFF"/><text text-anchor="middle" pointer-events="none" font-family="sans-serif" dy="1.5625" font-size="25" fill="#FFFFFF"/><text text-anchor="middle" pointer-events="none" y="0" font-size="10px" fill="#FFFFFF" font-family="sans-serif"> Tom</text><text text-anchor="middle" pointer-events="none" y="10" font-size="10px" fill="#FFFFFF" font-family="sans-serif"> Tykwer</text></g><g class="node" transform="translate(182.3693766880216,200.73205386812657)"><circle class="outline" cx="0" cy="0" r="25" fill="#D9C8AE" stroke="#c0a378" stroke-width="2px"/><text text-anchor="middle" pointer-events="none" font-family="sans-serif" dy="1.5625" font-size="25" fill="#604A0E"/><text text-anchor="middle" pointer-events="none" font-family="sans-serif" dy="1.5625" font-size="25" fill="#604A0E"/><text text-anchor="middle" pointer-events="none" y="0" font-size="10px" fill="#604A0E" font-family="sans-serif"> Cloud</text><text text-anchor="middle" pointer-events="none" y="10" font-size="10px" fill="#604A0E" font-family="sans-serif"> Atlas</text></g><g class="node" transform="translate(319.6746988364739,70.73175776380798)"><circle class="outline" cx="0" cy="0" r="25" fill="#F16667" stroke="#eb2728" stroke-width="2px"/><text text-anchor="middle" pointer-events="none" font-family="sans-serif" dy="1.5625" font-size="25" fill="#FFFFFF"/><text text-anchor="middle" pointer-events="none" font-family="sans-serif" dy="1.5625" font-size="25" fill="#FFFFFF"/><text text-anchor="middle" pointer-events="none" y="0" font-size="10px" fill="#FFFFFF" font-family="sans-serif"> Lana</text><text text-anchor="middle" pointer-events="none" y="10" font-size="10px" fill="#FFFFFF" font-family="sans-serif"> Wacho…</text></g><g class="node" transform="translate(10.267273829572403,80.09750920912032)"><circle class="outline" cx="0" cy="0" r="25" fill="#F16667" stroke="#eb2728" stroke-width="2px"/><text text-anchor="middle" pointer-events="none" font-family="sans-serif" dy="1.5625" font-size="25" fill="#FFFFFF"/><text text-anchor="middle" pointer-events="none" font-family="sans-serif" dy="1.5625" font-size="25" fill="#FFFFFF"/><text text-anchor="middle" pointer-events="none" y="0" font-size="10px" fill="#FFFFFF" font-family="sans-serif"> Andy</text><text text-anchor="middle" pointer-events="none" y="10" font-size="10px" fill="#FFFFFF" font-family="sans-serif"> Wacho…</text></g><g class="node" transform="translate(26.63326627096272,-6.654722420977805)"><circle class="outline" cx="0" cy="0" r="25" fill="#F16667" stroke="#eb2728" stroke-width="2px"/><text text-anchor="middle" pointer-events="none" font-family="sans-serif" dy="1.5625" font-size="25" fill="#FFFFFF"/><text text-anchor="middle" pointer-events="none" font-family="sans-serif" dy="1.5625" font-size="25" fill="#FFFFFF"/><text text-anchor="middle" pointer-events="none" y="0" font-size="10px" fill="#FFFFFF" font-family="sans-serif"> James</text><text text-anchor="middle" pointer-events="none" y="10" font-size="10px" fill="#FFFFFF" font-family="sans-serif"> Marshall</text></g><g class="node" transform="translate(148.74517796589748,6.669463630824273)"><circle class="outline" cx="0" cy="0" r="25" fill="#D9C8AE" stroke="#c0a378" stroke-width="2px"/><text text-anchor="middle" pointer-events="none" font-family="sans-serif" dy="1.5625" font-size="25" fill="#604A0E"/><text text-anchor="middle" pointer-events="none" font-family="sans-serif" dy="1.5625" font-size="25" fill="#604A0E"/><text text-anchor="middle" pointer-events="none" y="0" font-size="10px" fill="#604A0E" font-family="sans-serif"> V for</text><text text-anchor="middle" pointer-events="none" y="10" font-size="10px" fill="#604A0E" font-family="sans-serif"> Vendetta</text></g><g class="node" transform="translate(191.87330035796398,48.31414060020784)"><circle class="outline" cx="0" cy="0" r="25" fill="#D9C8AE" stroke="#c0a378" stroke-width="2px"/><text text-anchor="middle" pointer-events="none" font-family="sans-serif" dy="1.5625" font-size="25" fill="#604A0E"/><text text-anchor="middle" pointer-events="none" font-family="sans-serif" dy="1.5625" font-size="25" fill="#604A0E"/><text text-anchor="middle" pointer-events="none" font-family="sans-serif" dy="1.5625" font-size="25" fill="#604A0E"/><text text-anchor="middle" pointer-events="none" y="-5" font-size="10px" fill="#604A0E" font-family="sans-serif"> The</text><text text-anchor="middle" pointer-events="none" y="5" font-size="10px" fill="#604A0E" font-family="sans-serif"> Matrix</text><text text-anchor="middle" pointer-events="none" y="15" font-size="10px" fill="#604A0E" font-family="sans-serif"> Revol…</text></g><g class="node" transform="translate(176.73377320561409,123.9621196501747)"><circle class="outline" cx="0" cy="0" r="25" fill="#D9C8AE" stroke="#c0a378" stroke-width="2px"/><text text-anchor="middle" pointer-events="none" font-family="sans-serif" dy="1.5625" font-size="25" fill="#604A0E"/><text text-anchor="middle" pointer-events="none" font-family="sans-serif" dy="1.5625" font-size="25" fill="#604A0E"/><text text-anchor="middle" pointer-events="none" font-family="sans-serif" dy="1.5625" font-size="25" fill="#604A0E"/><text text-anchor="middle" pointer-events="none" y="-5" font-size="10px" fill="#604A0E" font-family="sans-serif"> The</text><text text-anchor="middle" pointer-events="none" y="5" font-size="10px" fill="#604A0E" font-family="sans-serif"> Matrix</text><text text-anchor="middle" pointer-events="none" y="15" font-size="10px" fill="#604A0E" font-family="sans-serif"> Reloa…</text></g><g class="node" transform="translate(139.39715978729586,77.1322598309622)"><circle class="outline" cx="0" cy="0" r="25" fill="#D9C8AE" stroke="#c0a378" stroke-width="2px"/><text text-anchor="middle" pointer-events="none" font-family="sans-serif" dy="1.5625" font-size="25" fill="#604A0E"/><text text-anchor="middle" pointer-events="none" font-family="sans-serif" dy="1.5625" font-size="25" fill="#604A0E"/><text text-anchor="middle" pointer-events="none" y="0" font-size="10px" fill="#604A0E" font-family="sans-serif"> The</text><text text-anchor="middle" pointer-events="none" y="10" font-size="10px" fill="#604A0E" font-family="sans-serif"> Matrix</text></g></g></svg>