<svg xmlns="http://www.w3.org/2000/svg" width="370.4905090332031" height="364.4801940917969" viewBox="-62.96664810180664 -112.11962127685547 370.4905090332031 364.4801940917969"><title>Neo4j Graph Visualization</title><desc>Created using Neo4j (http://www.neo4j.com/)</desc><g class="layer relationships"><g class="relationship" transform="translate(145.52645847649597 223.36059433967984) rotate(262.7502037645226)"><path class="outline" fill="#A5ABB6" stroke="none" d="M 25 0.5 L 51.897230498870215 0.5 L 51.897230498870215 -0.5 L 25 -0.5 Z M 97.45973049887021 0.5 L 124.35696099774043 0.5 L 124.35696099774043 3.5 L 131.35696099774043 0 L 124.35696099774043 -3.5 L 124.35696099774043 -0.5 L 97.45973049887021 -0.5 Z"/><text text-anchor="middle" pointer-events="none" font-size="8px" fill="#000000" x="74.67848049887021" y="3" transform="rotate(180 74.67848049887021 0)" font-family="sans-serif">ACTED_IN</text></g><g class="relationship" transform="translate(178.62595358560986 173.35648697335185) rotate(243.3131374198001)"><path class="outline" fill="#A5ABB6" stroke="none" d="M 25 0.5 L 32.535680423329126 0.5 L 32.535680423329126 -0.5 L 25 -0.5 Z M 78.09818042332913 0.5 L 85.63386084665825 0.5 L 85.63386084665825 3.5 L 92.63386084665825 0 L 85.63386084665825 -3.5 L 85.63386084665825 -0.5 L 78.09818042332913 -0.5 Z"/><text text-anchor="middle" pointer-events="none" font-size="8px" fill="#000000" x="55.316930423329126" y="3" transform="rotate(180 55.316930423329126 0)" font-family="sans-serif">ACTED_IN</text></g><g class="relationship" transform="translate(235.73101934719276 191.5154111038022) rotate(228.2705068927632)"><path class="outline" fill="#A5ABB6" stroke="none" d="M 25 0.5 L 56.30114570645054 0.5 L 56.30114570645054 -0.5 L 25 -0.5 Z M 101.86364570645054 0.5 L 133.16479141290108 0.5 L 133.16479141290108 3.5 L 140.16479141290108 0 L 133.16479141290108 -3.5 L 133.16479141290108 -0.5 L 101.86364570645054 -0.5 Z"/><text text-anchor="middle" pointer-events="none" font-size="8px" fill="#000000" x="79.08239570645054" y="3" transform="rotate(180 79.08239570645054 0)" font-family="sans-serif">ACTED_IN</text></g><g class="relationship" transform="translate(243.09383588716295 130.27566207600847) rotate(207.867729978762)"><path class="outline" fill="#A5ABB6" stroke="none" d="M 25 0.5 L 40.06210991952349 0.5 L 40.06210991952349 -0.5 L 25 -0.5 Z M 85.6246099195235 0.5 L 100.68671983904699 0.5 L 100.68671983904699 3.5 L 107.68671983904699 0 L 100.68671983904699 -3.5 L 100.68671983904699 -0.5 L 85.6246099195235 -0.5 Z"/><text text-anchor="middle" pointer-events="none" font-size="8px" fill="#000000" x="62.84335991952349" y="3" transform="rotate(180 62.84335991952349 0)" font-family="sans-serif">ACTED_IN</text></g><g class="relationship" transform="translate(278.5238959467629 81.87710676950476) rotate(185.0973069186948)"><path class="outline" fill="#A5ABB6" stroke="none" d="M 25 0.5 L 50.38643868207342 0.5 L 50.38643868207342 -0.5 L 25 -0.5 Z M 95.94893868207342 0.5 L 121.33537736414684 0.5 L 121.33537736414684 3.5 L 128.33537736414684 0 L 121.33537736414684 -3.5 L 121.33537736414684 -0.5 L 95.94893868207342 -0.5 Z"/><text text-anchor="middle" pointer-events="none" font-size="8px" fill="#000000" x="73.16768868207342" y="3" transform="rotate(180 73.16768868207342 0)" font-family="sans-serif">ACTED_IN</text></g><g class="relationship" transform="translate(247.05924052702184 -29.3307604379835) rotate(501.1755035829576)"><path class="outline" fill="#A5ABB6" stroke="none" d="M 25 0.5 L 50.88101808171312 0.5 L 50.88101808171312 -0.5 L 25 -0.5 Z M 97.77164308171312 0.5 L 123.65266116342625 0.5 L 123.65266116342625 3.5 L 130.65266116342625 0 L 123.65266116342625 -3.5 L 123.65266116342625 -0.5 L 97.77164308171312 -0.5 Z"/><text text-anchor="middle" pointer-events="none" font-size="8px" fill="#000000" x="74.32633058171312" y="3" transform="rotate(180 74.32633058171312 0)" font-family="sans-serif">DIRECTED</text></g><g class="relationship" transform="translate(247.40397599608437 30.627337040728694) rotate(522.8077318359016)"><path class="outline" fill="#A5ABB6" stroke="none" d="M 25 0.5 L 37.36720022840739 0.5 L 37.36720022840739 -0.5 L 25 -0.5 Z M 82.9297002284074 0.5 L 95.29690045681478 0.5 L 95.29690045681478 3.5 L 102.29690045681478 0 L 95.29690045681478 -3.5 L 95.29690045681478 -0.5 L 82.9297002284074 -0.5 Z"/><text text-anchor="middle" pointer-events="none" font-size="8px" fill="#000000" x="60.14845022840739" y="3" transform="rotate(180 60.14845022840739 0)" font-family="sans-serif">ACTED_IN</text></g><g class="relationship" transform="translate(189.04057073499462 -44.45352197636312) rotate(479.2989699270503)"><path class="outline" fill="#A5ABB6" stroke="none" d="M 25 0.5 L 43.23316491058429 0.5 L 43.23316491058429 -0.5 L 25 -0.5 Z M 79.00660241058429 0.5 L 97.23976732116859 0.5 L 97.23976732116859 3.5 L 104.23976732116859 0 L 97.23976732116859 -3.5 L 97.23976732116859 -0.5 L 79.00660241058429 -0.5 Z"/><text text-anchor="middle" pointer-events="none" font-size="8px" fill="#000000" x="61.11988366058429" y="3" transform="rotate(180 61.11988366058429 0)" font-family="sans-serif">WROTE</text></g><g class="relationship" transform="translate(143.19103700931288 -83.11961811339424) rotate(456.55578415649967)"><path class="outline" fill="#A5ABB6" stroke="none" d="M 25 0.5 L 49.90354106253733 0.5 L 49.90354106253733 -0.5 L 25 -0.5 Z M 95.46604106253733 0.5 L 120.36958212507466 0.5 L 120.36958212507466 3.5 L 127.36958212507466 0 L 120.36958212507466 -3.5 L 120.36958212507466 -0.5 L 95.46604106253733 -0.5 Z"/><text text-anchor="middle" pointer-events="none" font-size="8px" fill="#000000" x="72.68479106253733" y="3" transform="rotate(180 72.68479106253733 0)" font-family="sans-serif">ACTED_IN</text></g><g class="relationship" transform="translate(86.14873094245145 -64.69512946945137) rotate(433.3950762014032)"><path class="outline" fill="#A5ABB6" stroke="none" d="M 25 0.5 L 39.97650905043761 0.5 L 39.97650905043761 -0.5 L 25 -0.5 Z M 91.75775905043761 0.5 L 106.73426810087523 0.5 L 106.73426810087523 3.5 L 113.73426810087523 0 L 106.73426810087523 -3.5 L 106.73426810087523 -0.5 L 91.75775905043761 -0.5 Z"/><text text-anchor="middle" pointer-events="none" font-size="8px" fill="#000000" x="65.86713405043761" y="3" font-family="sans-serif">PRODUCED</text></g><g class="relationship" transform="translate(29.769774067665356 -44.24980917566873) rotate(409.51822658867604)"><path class="outline" fill="#A5ABB6" stroke="none" d="M 25 0.5 L 52.569106538619735 0.5 L 52.569106538619735 -0.5 L 25 -0.5 Z M 88.34254403861974 0.5 L 115.91165057723947 0.5 L 115.91165057723947 3.5 L 122.91165057723947 0 L 115.91165057723947 -3.5 L 115.91165057723947 -0.5 L 88.34254403861974 -0.5 Z"/><text text-anchor="middle" pointer-events="none" font-size="8px" fill="#000000" x="70.45582528861974" y="3" font-family="sans-serif">WROTE</text></g><g class="relationship" transform="translate(15.2529979074711 44.176721531080126) rotate(372.28757314545174)"><path class="outline" fill="#A5ABB6" stroke="none" d="M 25 0.5 L 30.285558729260508 0.5 L 30.285558729260508 -0.5 L 25 -0.5 Z M 75.84805872926052 0.5 L 81.13361745852102 0.5 L 81.13361745852102 3.5 L 88.13361745852102 0 L 81.13361745852102 -3.5 L 81.13361745852102 -0.5 L 75.84805872926052 -0.5 Z"/><text text-anchor="middle" pointer-events="none" font-size="8px" fill="#000000" x="53.06680872926051" y="3" font-family="sans-serif">ACTED_IN</text></g><g class="relationship" transform="translate(-17.869794812405715 -5.779445673644475) rotate(387.2628900530845)"><path class="outline" fill="#A5ABB6" stroke="none" d="M 25 0.5 L 54.527860859684736 0.5 L 54.527860859684736 -0.5 L 25 -0.5 Z M 100.09036085968474 0.5 L 129.61822171936947 0.5 L 129.61822171936947 3.5 L 136.61822171936947 0 L 129.61822171936947 -3.5 L 129.61822171936947 -0.5 L 100.09036085968474 -0.5 Z"/><text text-anchor="middle" pointer-events="none" font-size="8px" fill="#000000" x="77.30911085968474" y="3" font-family="sans-serif">ACTED_IN</text></g><g class="relationship" transform="translate(-0.3922905333182022 128.40050090443708) rotate(334.5153000063374)"><path class="outline" fill="#A5ABB6" stroke="none" d="M 25 0.5 L 43.61305787034679 0.5 L 43.61305787034679 -0.5 L 25 -0.5 Z M 89.1755578703468 0.5 L 107.78861574069359 0.5 L 107.78861574069359 3.5 L 114.78861574069359 0 L 107.78861574069359 -3.5 L 107.78861574069359 -0.5 L 89.1755578703468 -0.5 Z"/><text text-anchor="middle" pointer-events="none" font-size="8px" fill="#000000" x="66.3943078703468" y="3" font-family="sans-serif">ACTED_IN</text></g><g class="relationship" transform="translate(-33.96664821664252 78.59114959111994) rotate(356.29779027784025)"><path class="outline" fill="#A5ABB6" stroke="none" d="M 25 0.5 L 53.76658503534664 0.5 L 53.76658503534664 -0.5 L 25 -0.5 Z M 99.32908503534664 0.5 L 128.09567007069327 0.5 L 128.09567007069327 3.5 L 135.09567007069327 0 L 128.09567007069327 -3.5 L 128.09567007069327 -0.5 L 99.32908503534664 -0.5 Z"/><text text-anchor="middle" pointer-events="none" font-size="8px" fill="#000000" x="76.54783503534664" y="3" font-family="sans-serif">ACTED_IN</text></g><g class="relationship" transform="translate(10.98379464083767 189.72852845883438) rotate(313.38456843137385)"><path class="outline" fill="#A5ABB6" stroke="none" d="M 25 0.5 L 57.29168592225632 0.5 L 57.29168592225632 -0.5 L 25 -0.5 Z M 102.85418592225632 0.5 L 135.14587184451264 0.5 L 135.14587184451264 3.5 L 142.14587184451264 0 L 135.14587184451264 -3.5 L 135.14587184451264 -0.5 L 102.85418592225632 -0.5 Z"/><text text-anchor="middle" pointer-events="none" font-size="8px" fill="#000000" x="80.07293592225632" y="3" font-family="sans-serif">ACTED_IN</text></g><g class="relationship" transform="translate(64.60057491471349 162.9060361352292) rotate(302.8833414289078)"><path class="outline" fill="#A5ABB6" stroke="none" d="M 25 0.5 L 30.074369444459663 0.5 L 30.074369444459663 -0.5 L 25 -0.5 Z M 75.63686944445966 0.5 L 80.71123888891933 0.5 L 80.71123888891933 3.5 L 87.71123888891933 0 L 80.71123888891933 -3.5 L 80.71123888891933 -0.5 L 75.63686944445966 -0.5 Z"/><text text-anchor="middle" pointer-events="none" font-size="8px" fill="#000000" x="52.85561944445966" y="3" font-family="sans-serif">ACTED_IN</text></g><g class="relationship" transform="translate(85.1212954126036 219.2724546418915) rotate(285.0736942452984)"><path class="outline" fill="#A5ABB6" stroke="none" d="M 25 0.5 L 51.91885365811889 0.5 L 51.91885365811889 -0.5 L 25 -0.5 Z M 97.48135365811889 0.5 L 124.40020731623778 0.5 L 124.40020731623778 3.5 L 131.40020731623778 0 L 124.40020731623778 -3.5 L 124.40020731623778 -0.5 L 97.48135365811889 -0.5 Z"/><text text-anchor="middle" pointer-events="none" font-size="8px" fill="#000000" x="74.70010365811889" y="3" font-family="sans-serif">ACTED_IN</text></g></g><g class="layer nodes"><g class="node" transform="translate(145.52645847649597,223.36059433967984)"><circle class="outline" cx="0" cy="0" r="25" fill="#F16667" stroke="#eb2728" stroke-width="2px"/><text text-anchor="middle" pointer-events="none" font-family="sans-serif" dy="1.5625" font-size="25" fill="#FFFFFF"/><text text-anchor="middle" pointer-events="none" font-family="sans-serif" dy="1.5625" font-size="25" fill="#FFFFFF"/><text text-anchor="middle" pointer-events="none" y="0" font-size="10px" fill="#FFFFFF" font-family="sans-serif"> Dominic</text><text text-anchor="middle" pointer-events="none" y="10" font-size="10px" fill="#FFFFFF" font-family="sans-serif"> Cooper</text></g><g class="node" transform="translate(125.79492279767778,68.25364493958223)"><circle class="outline" cx="0" cy="0" r="25" fill="#D9C8AE" stroke="#c0a378" stroke-width="2px"/><text text-anchor="middle" pointer-events="none" font-family="sans-serif" dy="1.5625" font-size="25" fill="#604A0E"/><text text-anchor="middle" pointer-events="none" font-family="sans-serif" dy="1.5625" font-size="25" fill="#604A0E"/><text text-anchor="middle" pointer-events="none" font-family="sans-serif" dy="1.5625" font-size="25" fill="#604A0E"/><text text-anchor="middle" pointer-events="none" y="-5" font-size="10px" fill="#604A0E" font-family="sans-serif"> Captain</text><text text-anchor="middle" pointer-events="none" y="5" font-size="10px" fill="#604A0E" font-family="sans-serif"> America:</text><text text-anchor="middle" pointer-events="none" y="15" font-size="10px" fill="#604A0E" font-family="sans-serif"> The Fi…</text></g><g class="node" transform="translate(178.62595358560986,173.35648697335185)"><circle class="outline" cx="0" cy="0" r="25" fill="#F16667" stroke="#eb2728" stroke-width="2px"/><text text-anchor="middle" pointer-events="none" font-family="sans-serif" dy="1.5625" font-size="25" fill="#FFFFFF"/><text text-anchor="middle" pointer-events="none" font-family="sans-serif" dy="1.5625" font-size="25" fill="#FFFFFF"/><text text-anchor="middle" pointer-events="none" y="0" font-size="10px" fill="#FFFFFF" font-family="sans-serif"> Tommy</text><text text-anchor="middle" pointer-events="none" y="10" font-size="10px" fill="#FFFFFF" font-family="sans-serif"> Lee Jon…</text></g><g class="node" transform="translate(235.73101934719276,191.5154111038022)"><circle class="outline" cx="0" cy="0" r="25" fill="#F16667" stroke="#eb2728" stroke-width="2px"/><text text-anchor="middle" pointer-events="none" font-family="sans-serif" dy="1.5625" font-size="25" fill="#FFFFFF"/><text text-anchor="middle" pointer-events="none" font-family="sans-serif" dy="1.5625" font-size="25" fill="#FFFFFF"/><text text-anchor="middle" pointer-events="none" y="0" font-size="10px" fill="#FFFFFF" font-family="sans-serif"> Richard</text><text text-anchor="middle" pointer-events="none" y="10" font-size="10px" fill="#FFFFFF" font-family="sans-serif"> Armitage</text></g><g class="node" transform="translate(243.09383588716295,130.27566207600847)"><circle class="outline" cx="0" cy="0" r="25" fill="#F16667" stroke="#eb2728" stroke-width="2px"/><text text-anchor="middle" pointer-events="none" font-family="sans-serif" dy="1.5625" font-size="25" fill="#FFFFFF"/><text text-anchor="middle" pointer-events="none" font-family="sans-serif" dy="1.5625" font-size="25" fill="#FFFFFF"/><text text-anchor="middle" pointer-events="none" y="0" font-size="10px" fill="#FFFFFF" font-family="sans-serif"> Hugo</text><text text-anchor="middle" pointer-events="none" y="10" font-size="10px" fill="#FFFFFF" font-family="sans-serif"> Weaving</text></g><g class="node" transform="translate(278.5238959467629,81.87710676950476)"><circle class="outline" cx="0" cy="0" r="25" fill="#F16667" stroke="#eb2728" stroke-width="2px"/><text text-anchor="middle" pointer-events="none" font-family="sans-serif" dy="1.5625" font-size="25" fill="#FFFFFF"/><text text-anchor="middle" pointer-events="none" font-family="sans-serif" dy="1.5625" font-size="25" fill="#FFFFFF"/><text text-anchor="middle" pointer-events="none" font-family="sans-serif" dy="1.5625" font-size="25" fill="#FFFFFF"/><text text-anchor="middle" pointer-events="none" y="-5" font-size="10px" fill="#FFFFFF" font-family="sans-serif"> Samuel</text><text text-anchor="middle" pointer-events="none" y="5" font-size="10px" fill="#FFFFFF" font-family="sans-serif"> L.</text><text text-anchor="middle" pointer-events="none" y="15" font-size="10px" fill="#FFFFFF" font-family="sans-serif"> Jackson</text></g><g class="node" transform="translate(247.05924052702184,-29.3307604379835)"><circle class="outline" cx="0" cy="0" r="25" fill="#F16667" stroke="#eb2728" stroke-width="2px"/><text text-anchor="middle" pointer-events="none" font-family="sans-serif" dy="1.5625" font-size="25" fill="#FFFFFF"/><text text-anchor="middle" pointer-events="none" font-family="sans-serif" dy="1.5625" font-size="25" fill="#FFFFFF"/><text text-anchor="middle" pointer-events="none" y="0" font-size="10px" fill="#FFFFFF" font-family="sans-serif"> Joe</text><text text-anchor="middle" pointer-events="none" y="10" font-size="10px" fill="#FFFFFF" font-family="sans-serif"> Johnston</text></g><g class="node" transform="translate(247.40397599608437,30.627337040728694)"><circle class="outline" cx="0" cy="0" r="25" fill="#F16667" stroke="#eb2728" stroke-width="2px"/><text text-anchor="middle" pointer-events="none" font-family="sans-serif" dy="1.5625" font-size="25" fill="#FFFFFF"/><text text-anchor="middle" pointer-events="none" y="5" font-size="10px" fill="#FFFFFF" font-family="sans-serif"> JJ Feild</text></g><g class="node" transform="translate(189.04057073499462,-44.45352197636312)"><circle class="outline" cx="0" cy="0" r="25" fill="#F16667" stroke="#eb2728" stroke-width="2px"/><text text-anchor="middle" pointer-events="none" font-family="sans-serif" dy="1.5625" font-size="25" fill="#FFFFFF"/><text text-anchor="middle" pointer-events="none" y="5" font-size="10px" fill="#FFFFFF" font-family="sans-serif"> Christop…</text></g><g class="node" transform="translate(143.19103700931288,-83.11961811339424)"><circle class="outline" cx="0" cy="0" r="25" fill="#F16667" stroke="#eb2728" stroke-width="2px"/><text text-anchor="middle" pointer-events="none" font-family="sans-serif" dy="1.5625" font-size="25" fill="#FFFFFF"/><text text-anchor="middle" pointer-events="none" font-family="sans-serif" dy="1.5625" font-size="25" fill="#FFFFFF"/><text text-anchor="middle" pointer-events="none" y="0" font-size="10px" fill="#FFFFFF" font-family="sans-serif"> Toby</text><text text-anchor="middle" pointer-events="none" y="10" font-size="10px" fill="#FFFFFF" font-family="sans-serif"> Jones</text></g><g class="node" transform="translate(86.14873094245145,-64.69512946945137)"><circle class="outline" cx="0" cy="0" r="25" fill="#F16667" stroke="#eb2728" stroke-width="2px"/><text text-anchor="middle" pointer-events="none" font-family="sans-serif" dy="1.5625" font-size="25" fill="#FFFFFF"/><text text-anchor="middle" pointer-events="none" font-family="sans-serif" dy="1.5625" font-size="25" fill="#FFFFFF"/><text text-anchor="middle" pointer-events="none" y="0" font-size="10px" fill="#FFFFFF" font-family="sans-serif"> Kevin</text><text text-anchor="middle" pointer-events="none" y="10" font-size="10px" fill="#FFFFFF" font-family="sans-serif"> Feige</text></g><g class="node" transform="translate(29.769774067665356,-44.24980917566873)"><circle class="outline" cx="0" cy="0" r="25" fill="#F16667" stroke="#eb2728" stroke-width="2px"/><text text-anchor="middle" pointer-events="none" font-family="sans-serif" dy="1.5625" font-size="25" fill="#FFFFFF"/><text text-anchor="middle" pointer-events="none" font-family="sans-serif" dy="1.5625" font-size="25" fill="#FFFFFF"/><text text-anchor="middle" pointer-events="none" y="0" font-size="10px" fill="#FFFFFF" font-family="sans-serif"> Stephen</text><text text-anchor="middle" pointer-events="none" y="10" font-size="10px" fill="#FFFFFF" font-family="sans-serif"> McFeely</text></g><g class="node" transform="translate(15.2529979074711,44.176721531080126)"><circle class="outline" cx="0" cy="0" r="25" fill="#F16667" stroke="#eb2728" stroke-width="2px"/><text text-anchor="middle" pointer-events="none" font-family="sans-serif" dy="1.5625" font-size="25" fill="#FFFFFF"/><text text-anchor="middle" pointer-events="none" font-family="sans-serif" dy="1.5625" font-size="25" fill="#FFFFFF"/><text text-anchor="middle" pointer-events="none" y="0" font-size="10px" fill="#FFFFFF" font-family="sans-serif"> Kenneth</text><text text-anchor="middle" pointer-events="none" y="10" font-size="10px" fill="#FFFFFF" font-family="sans-serif"> Choi</text></g><g class="node" transform="translate(-17.869794812405715,-5.779445673644475)"><circle class="outline" cx="0" cy="0" r="25" fill="#F16667" stroke="#eb2728" stroke-width="2px"/><text text-anchor="middle" pointer-events="none" font-family="sans-serif" dy="1.5625" font-size="25" fill="#FFFFFF"/><text text-anchor="middle" pointer-events="none" y="5" font-size="10px" fill="#FFFFFF" font-family="sans-serif"> Sebastian</text></g><g class="node" transform="translate(-0.3922905333182022,128.40050090443708)"><circle class="outline" cx="0" cy="0" r="25" fill="#F16667" stroke="#eb2728" stroke-width="2px"/><text text-anchor="middle" pointer-events="none" font-family="sans-serif" dy="1.5625" font-size="25" fill="#FFFFFF"/><text text-anchor="middle" pointer-events="none" font-family="sans-serif" dy="1.5625" font-size="25" fill="#FFFFFF"/><text text-anchor="middle" pointer-events="none" y="0" font-size="10px" fill="#FFFFFF" font-family="sans-serif"> Neal</text><text text-anchor="middle" pointer-events="none" y="10" font-size="10px" fill="#FFFFFF" font-family="sans-serif"> McDon…</text></g><g class="node" transform="translate(-33.96664821664252,78.59114959111994)"><circle class="outline" cx="0" cy="0" r="25" fill="#F16667" stroke="#eb2728" stroke-width="2px"/><text text-anchor="middle" pointer-events="none" font-family="sans-serif" dy="1.5625" font-size="25" fill="#FFFFFF"/><text text-anchor="middle" pointer-events="none" font-family="sans-serif" dy="1.5625" font-size="25" fill="#FFFFFF"/><text text-anchor="middle" pointer-events="none" y="0" font-size="10px" fill="#FFFFFF" font-family="sans-serif"> Derek</text><text text-anchor="middle" pointer-events="none" y="10" font-size="10px" fill="#FFFFFF" font-family="sans-serif"> Luke</text></g><g class="node" transform="translate(10.98379464083767,189.72852845883438)"><circle class="outline" cx="0" cy="0" r="25" fill="#F16667" stroke="#eb2728" stroke-width="2px"/><text text-anchor="middle" pointer-events="none" font-family="sans-serif" dy="1.5625" font-size="25" fill="#FFFFFF"/><text text-anchor="middle" pointer-events="none" font-family="sans-serif" dy="1.5625" font-size="25" fill="#FFFFFF"/><text text-anchor="middle" pointer-events="none" y="0" font-size="10px" fill="#FFFFFF" font-family="sans-serif"> Stanley</text><text text-anchor="middle" pointer-events="none" y="10" font-size="10px" fill="#FFFFFF" font-family="sans-serif"> Tucci</text></g><g class="node" transform="translate(64.60057491471349,162.9060361352292)"><circle class="outline" cx="0" cy="0" r="25" fill="#F16667" stroke="#eb2728" stroke-width="2px"/><text text-anchor="middle" pointer-events="none" font-family="sans-serif" dy="1.5625" font-size="25" fill="#FFFFFF"/><text text-anchor="middle" pointer-events="none" font-family="sans-serif" dy="1.5625" font-size="25" fill="#FFFFFF"/><text text-anchor="middle" pointer-events="none" y="0" font-size="10px" fill="#FFFFFF" font-family="sans-serif"> Hayley</text><text text-anchor="middle" pointer-events="none" y="10" font-size="10px" fill="#FFFFFF" font-family="sans-serif"> Atwell</text></g><g class="node" transform="translate(85.1212954126036,219.2724546418915)"><circle class="outline" cx="0" cy="0" r="25" fill="#F16667" stroke="#eb2728" stroke-width="2px"/><text text-anchor="middle" pointer-events="none" font-family="sans-serif" dy="1.5625" font-size="25" fill="#FFFFFF"/><text text-anchor="middle" pointer-events="none" font-family="sans-serif" dy="1.5625" font-size="25" fill="#FFFFFF"/><text text-anchor="middle" pointer-events="none" y="0" font-size="10px" fill="#FFFFFF" font-family="sans-serif"> Chris</text><text text-anchor="middle" pointer-events="none" y="10" font-size="10px" fill="#FFFFFF" font-family="sans-serif"> Evans</text></g></g></svg>