<svg xmlns="http://www.w3.org/2000/svg" width="537.212646484375" height="350.0034484863281" viewBox="-180.55984497070312 -73.79714965820312 537.212646484375 350.0034484863281"><title>Neo4j Graph Visualization</title><desc>Created using Neo4j (http://www.neo4j.com/)</desc><g class="layer relationships"><g class="relationship" transform="translate(26.93427950859089 95.94453251450432) rotate(368.2651596344793)"><path class="outline" fill="#A5ABB6" stroke="none" d="M 25 0.5 L 60.97558710000017 0.5 L 60.97558710000017 -0.5 L 25 -0.5 Z M 106.53808710000017 0.5 L 142.51367420000034 0.5 L 142.51367420000034 3.5 L 149.51367420000034 0 L 142.51367420000034 -3.5 L 142.51367420000034 -0.5 L 106.53808710000017 -0.5 Z"/><text text-anchor="middle" pointer-events="none" font-size="8px" fill="#000000" x="83.75683710000017" y="3" font-family="sans-serif">ACTED_IN</text></g><g class="relationship" transform="translate(236.4437071809947 247.2063196016334) rotate(253.73669218545996)"><path class="outline" fill="#A5ABB6" stroke="none" d="M 25 0.5 L 39.43576075789578 0.5 L 39.43576075789578 -0.5 L 25 -0.5 Z M 84.99826075789578 0.5 L 99.43402151579156 0.5 L 99.43402151579156 3.5 L 106.43402151579156 0 L 99.43402151579156 -3.5 L 99.43402151579156 -0.5 L 84.99826075789578 -0.5 Z"/><text text-anchor="middle" pointer-events="none" font-size="8px" fill="#000000" x="62.21701075789578" y="3" transform="rotate(180 62.21701075789578 0)" font-family="sans-serif">ACTED_IN</text></g><g class="relationship" transform="translate(311.24796527495977 186.61645231282694) rotate(210.43896275738592)"><path class="outline" fill="#A5ABB6" stroke="none" d="M 25 0.5 L 38.44653080040071 0.5 L 38.44653080040071 -0.5 L 25 -0.5 Z M 84.00903080040071 0.5 L 97.45556160080142 0.5 L 97.45556160080142 3.5 L 104.45556160080142 0 L 97.45556160080142 -3.5 L 97.45556160080142 -0.5 L 84.00903080040071 -0.5 Z"/><text text-anchor="middle" pointer-events="none" font-size="8px" fill="#000000" x="61.22778080040071" y="3" transform="rotate(180 61.22778080040071 0)" font-family="sans-serif">ACTED_IN</text></g><g class="relationship" transform="translate(327.652793616889 92.78888791658835) rotate(527.5588922032937)"><path class="outline" fill="#A5ABB6" stroke="none" d="M 25 0.5 L 39.2666718491418 0.5 L 39.2666718491418 -0.5 L 25 -0.5 Z M 84.8291718491418 0.5 L 99.0958436982836 0.5 L 99.0958436982836 3.5 L 106.0958436982836 0 L 99.0958436982836 -3.5 L 99.0958436982836 -0.5 L 84.8291718491418 -0.5 Z"/><text text-anchor="middle" pointer-events="none" font-size="8px" fill="#000000" x="62.0479218491418" y="3" transform="rotate(180 62.0479218491418 0)" font-family="sans-serif">ACTED_IN</text></g><g class="relationship" transform="translate(26.93427950859089 95.94453251450432) rotate(357.7830119653987)"><path class="outline" fill="#A5ABB6" stroke="none" d="M 25 0.5 L 26.251777867955823 0.5 L 26.251777867955823 -0.5 L 25 -0.5 Z M 67.36505911795582 0.5 L 68.61683698591165 0.5 L 68.61683698591165 3.5 L 75.61683698591165 0 L 68.61683698591165 -3.5 L 68.61683698591165 -0.5 L 67.36505911795582 -0.5 Z"/><text text-anchor="middle" pointer-events="none" font-size="8px" fill="#000000" x="46.80841849295582" y="3" font-family="sans-serif">ACTED…</text></g><g class="relationship" transform="translate(242.7166453380646 33.75700631297916) rotate(513.1671648322092)"><path class="outline" fill="#A5ABB6" stroke="none" d="M 25 0.5 L 38.29194180483849 0.5 L 38.29194180483849 -0.5 L 25 -0.5 Z M 83.85444180483849 0.5 L 97.14638360967697 0.5 L 97.14638360967697 3.5 L 104.14638360967697 0 L 97.14638360967697 -3.5 L 97.14638360967697 -0.5 L 83.85444180483849 -0.5 Z"/><text text-anchor="middle" pointer-events="none" font-size="8px" fill="#000000" x="61.07319180483849" y="3" transform="rotate(180 61.07319180483849 0)" font-family="sans-serif">ACTED_IN</text></g><g class="relationship" transform="translate(202.63597287547495 -23.095874363572623) rotate(483.13352455697964)"><path class="outline" fill="#A5ABB6" stroke="none" d="M 25 0.5 L 42.4721941840576 0.5 L 42.4721941840576 -0.5 L 25 -0.5 Z M 88.0346941840576 0.5 L 105.5068883681152 0.5 L 105.5068883681152 3.5 L 112.5068883681152 0 L 105.5068883681152 -3.5 L 105.5068883681152 -0.5 L 88.0346941840576 -0.5 Z"/><text text-anchor="middle" pointer-events="none" font-size="8px" fill="#000000" x="65.2534441840576" y="3" transform="rotate(180 65.2534441840576 0)" font-family="sans-serif">ACTED_IN</text></g><g class="relationship" transform="translate(136.8986618099994 -44.79715235766744) rotate(453.9389221241248)"><path class="outline" fill="#A5ABB6" stroke="none" d="M 25 0.5 L 42.30546974346794 0.5 L 42.30546974346794 -0.5 L 25 -0.5 Z M 87.86796974346794 0.5 L 105.17343948693588 0.5 L 105.17343948693588 3.5 L 112.17343948693588 0 L 105.17343948693588 -3.5 L 105.17343948693588 -0.5 L 87.86796974346794 -0.5 Z"/><text text-anchor="middle" pointer-events="none" font-size="8px" fill="#000000" x="65.08671974346794" y="3" transform="rotate(180 65.08671974346794 0)" font-family="sans-serif">ACTED_IN</text></g><g class="relationship" transform="translate(68.83659137016168 -26.143502733875195) rotate(423.61309817782603)"><path class="outline" fill="#A5ABB6" stroke="none" d="M 25 0.5 L 39.68994840165064 0.5 L 39.68994840165064 -0.5 L 25 -0.5 Z M 85.25244840165064 0.5 L 99.94239680330128 0.5 L 99.94239680330128 3.5 L 106.94239680330128 0 L 99.94239680330128 -3.5 L 99.94239680330128 -0.5 L 85.25244840165064 -0.5 Z"/><text text-anchor="middle" pointer-events="none" font-size="8px" fill="#000000" x="62.47119840165064" y="3" font-family="sans-serif">ACTED_IN</text></g><g class="relationship" transform="translate(26.93427950859089 95.94453251450432) rotate(218.0669772599632)"><path class="outline" fill="#A5ABB6" stroke="none" d="M 25 0.5 L 35.02774694795644 0.5 L 35.02774694795644 -0.5 L 25 -0.5 Z M 80.59024694795644 0.5 L 90.61799389591287 0.5 L 90.61799389591287 3.5 L 97.61799389591287 0 L 90.61799389591287 -3.5 L 90.61799389591287 -0.5 L 80.59024694795644 -0.5 Z"/><text text-anchor="middle" pointer-events="none" font-size="8px" fill="#000000" x="57.80899694795644" y="3" transform="rotate(180 57.80899694795644 0)" font-family="sans-serif">ACTED_IN</text></g><g class="relationship" transform="translate(-72.98924669780358 114.45056943463399) rotate(272.0615008658656)"><path class="outline" fill="#A5ABB6" stroke="none" d="M 25 0.5 L 25.91756125683124 0.5 L 25.91756125683124 -0.5 L 25 -0.5 Z M 61.25349875683124 0.5 L 62.17106001366248 0.5 L 62.17106001366248 3.5 L 69.17106001366248 0 L 62.17106001366248 -3.5 L 62.17106001366248 -0.5 L 61.25349875683124 -0.5 Z"/><text text-anchor="middle" pointer-events="none" font-size="8px" fill="#000000" x="43.58553000683124" y="3" font-family="sans-serif">ACTE…</text></g><g class="relationship" transform="translate(-131.80240048115803 102.72912325232899) rotate(307.0515877634223)"><path class="outline" fill="#A5ABB6" stroke="none" d="M 25 0.5 L 25.334684311445464 0.5 L 25.334684311445464 -0.5 L 25 -0.5 Z M 70.89718431144547 0.5 L 71.23186862289093 0.5 L 71.23186862289093 3.5 L 78.23186862289093 0 L 71.23186862289093 -3.5 L 71.23186862289093 -0.5 L 70.89718431144547 -0.5 Z"/><text text-anchor="middle" pointer-events="none" font-size="8px" fill="#000000" x="48.115934311445464" y="3" font-family="sans-serif">ACTED_IN</text></g><g class="relationship" transform="translate(-151.55984748817647 159.26300016336785) rotate(300.5387210068905)"><path class="outline" fill="#A5ABB6" stroke="none" d="M 25 0.5 L 54.367075891541404 0.5 L 54.367075891541404 -0.5 L 25 -0.5 Z M 99.9295758915414 0.5 L 129.2966517830828 0.5 L 129.2966517830828 3.5 L 136.2966517830828 0 L 129.2966517830828 -3.5 L 129.2966517830828 -0.5 L 99.9295758915414 -0.5 Z"/><text text-anchor="middle" pointer-events="none" font-size="8px" fill="#000000" x="77.1483258915414" y="3" font-family="sans-serif">ACTED_IN</text></g><g class="relationship" transform="translate(26.93427950859089 95.94453251450432) rotate(492.8242366559192)"><path class="outline" fill="#A5ABB6" stroke="none" d="M 25 0.5 L 54.34947943249642 0.5 L 54.34947943249642 -0.5 L 25 -0.5 Z M 99.91197943249642 0.5 L 129.26145886499285 0.5 L 129.26145886499285 3.5 L 136.26145886499285 0 L 129.26145886499285 -3.5 L 129.26145886499285 -0.5 L 99.91197943249642 -0.5 Z"/><text text-anchor="middle" pointer-events="none" font-size="8px" fill="#000000" x="77.13072943249642" y="3" transform="rotate(180 77.13072943249642 0)" font-family="sans-serif">ACTED_IN</text></g><g class="relationship" transform="translate(-72.98924669780358 114.45056943463399) rotate(455.5497595021181)"><path class="outline" fill="#A5ABB6" stroke="none" d="M 25 0.5 L 26.06326857753595 0.5 L 26.06326857753595 -0.5 L 25 -0.5 Z M 67.17654982753595 0.5 L 68.2398184050719 0.5 L 68.2398184050719 3.5 L 75.2398184050719 0 L 68.2398184050719 -3.5 L 68.2398184050719 -0.5 L 67.17654982753595 -0.5 Z"/><text text-anchor="middle" pointer-events="none" font-size="8px" fill="#000000" x="46.61990920253595" y="3" transform="rotate(180 46.61990920253595 0)" font-family="sans-serif">ACTED…</text></g><g class="relationship" transform="translate(-151.55984748817647 159.26300016336785) rotate(398.58690063670167)"><path class="outline" fill="#A5ABB6" stroke="none" d="M 25 0.5 L 25.55759365729797 0.5 L 25.55759365729797 -0.5 L 25 -0.5 Z M 55.55759365729797 0.5 L 56.11518731459594 0.5 L 56.11518731459594 3.5 L 63.11518731459594 0 L 56.11518731459594 -3.5 L 56.11518731459594 -0.5 L 55.55759365729797 -0.5 Z"/><text text-anchor="middle" pointer-events="none" font-size="8px" fill="#000000" x="40.55759365729797" y="3" font-family="sans-serif">ACT…</text></g><g class="relationship" transform="translate(-131.80240048115803 102.72912325232899) rotate(426.22350412072035)"><path class="outline" fill="#A5ABB6" stroke="none" d="M 25 0.5 L 34.634680845138305 0.5 L 34.634680845138305 -0.5 L 25 -0.5 Z M 80.1971808451383 0.5 L 89.83186169027661 0.5 L 89.83186169027661 3.5 L 96.83186169027661 0 L 89.83186169027661 -3.5 L 89.83186169027661 -0.5 L 80.1971808451383 -0.5 Z"/><text text-anchor="middle" pointer-events="none" font-size="8px" fill="#000000" x="57.415930845138305" y="3" font-family="sans-serif">ACTED_IN</text></g><g class="relationship" transform="translate(26.93427950859089 95.94453251450432) rotate(476.93160608246774)"><path class="outline" fill="#A5ABB6" stroke="none" d="M 25 0.5 L 31.013573771673826 0.5 L 31.013573771673826 -0.5 L 25 -0.5 Z M 76.57607377167383 0.5 L 82.58964754334765 0.5 L 82.58964754334765 3.5 L 89.58964754334765 0 L 82.58964754334765 -3.5 L 82.58964754334765 -0.5 L 76.57607377167383 -0.5 Z"/><text text-anchor="middle" pointer-events="none" font-size="8px" fill="#000000" x="53.794823771673826" y="3" transform="rotate(180 53.794823771673826 0)" font-family="sans-serif">ACTED_IN</text></g><g class="relationship" transform="translate(100.16701357816724 188.1740643707759) rotate(535.4615934039118)"><path class="outline" fill="#A5ABB6" stroke="none" d="M 25 0.5 L 36.48225970506056 0.5 L 36.48225970506056 -0.5 L 25 -0.5 Z M 82.04475970506056 0.5 L 93.52701941012111 0.5 L 93.52701941012111 3.5 L 100.52701941012111 0 L 93.52701941012111 -3.5 L 93.52701941012111 -0.5 L 82.04475970506056 -0.5 Z"/><text text-anchor="middle" pointer-events="none" font-size="8px" fill="#000000" x="59.26350970506056" y="3" transform="rotate(180 59.26350970506056 0)" font-family="sans-serif">ACTED_IN</text></g><g class="relationship" transform="translate(-151.55984748817647 159.26300016336785) rotate(377.0580065916257)"><path class="outline" fill="#A5ABB6" stroke="none" d="M 25 0.5 L 39.92813011831767 0.5 L 39.92813011831767 -0.5 L 25 -0.5 Z M 85.49063011831767 0.5 L 100.41876023663534 0.5 L 100.41876023663534 3.5 L 107.41876023663534 0 L 100.41876023663534 -3.5 L 100.41876023663534 -0.5 L 85.49063011831767 -0.5 Z"/><text text-anchor="middle" pointer-events="none" font-size="8px" fill="#000000" x="62.70938011831767" y="3" font-family="sans-serif">ACTED_IN</text></g><g class="relationship" transform="translate(-131.80240048115803 102.72912325232899) rotate(401.75680495858853)"><path class="outline" fill="#A5ABB6" stroke="none" d="M 25 0.5 L 45.32672091549321 0.5 L 45.32672091549321 -0.5 L 25 -0.5 Z M 90.88922091549321 0.5 L 111.21594183098642 0.5 L 111.21594183098642 3.5 L 118.21594183098642 0 L 111.21594183098642 -3.5 L 111.21594183098642 -0.5 L 90.88922091549321 -0.5 Z"/><text text-anchor="middle" pointer-events="none" font-size="8px" fill="#000000" x="68.10797091549321" y="3" font-family="sans-serif">ACTED_IN</text></g><g class="relationship" transform="translate(-72.98924669780358 114.45056943463399) rotate(420.1420022749228)"><path class="outline" fill="#A5ABB6" stroke="none" d="M 25 0.5 L 27.0620461732305 0.5 L 27.0620461732305 -0.5 L 25 -0.5 Z M 62.3979836732305 0.5 L 64.460029846461 0.5 L 64.460029846461 3.5 L 71.460029846461 0 L 64.460029846461 -3.5 L 64.460029846461 -0.5 L 62.3979836732305 -0.5 Z"/><text text-anchor="middle" pointer-events="none" font-size="8px" fill="#000000" x="44.7300149232305" y="3" font-family="sans-serif">ACTE…</text></g></g><g class="layer nodes"><g class="node" transform="translate(26.93427950859089,95.94453251450432)"><circle class="outline" cx="0" cy="0" r="25" fill="#F16667" stroke="#eb2728" stroke-width="2px"/><text text-anchor="middle" pointer-events="none" font-family="sans-serif" dy="1.5625" font-size="25" fill="#FFFFFF"/><text text-anchor="middle" pointer-events="none" font-family="sans-serif" dy="1.5625" font-size="25" fill="#FFFFFF"/><text text-anchor="middle" pointer-events="none" y="0" font-size="10px" fill="#FFFFFF" font-family="sans-serif"> Hugo</text><text text-anchor="middle" pointer-events="none" y="10" font-size="10px" fill="#FFFFFF" font-family="sans-serif"> Weaving</text></g><g class="node" transform="translate(199.63534755570095,121.03165228085697)"><circle class="outline" cx="0" cy="0" r="25" fill="#D9C8AE" stroke="#c0a378" stroke-width="2px"/><text text-anchor="middle" pointer-events="none" font-family="sans-serif" dy="1.5625" font-size="25" fill="#604A0E"/><text text-anchor="middle" pointer-events="none" font-family="sans-serif" dy="1.5625" font-size="25" fill="#604A0E"/><text text-anchor="middle" pointer-events="none" y="0" font-size="10px" fill="#604A0E" font-family="sans-serif"> Cloud</text><text text-anchor="middle" pointer-events="none" y="10" font-size="10px" fill="#604A0E" font-family="sans-serif"> Atlas</text></g><g class="node" transform="translate(236.4437071809947,247.2063196016334)"><circle class="outline" cx="0" cy="0" r="25" fill="#F16667" stroke="#eb2728" stroke-width="2px"/><text text-anchor="middle" pointer-events="none" font-family="sans-serif" dy="1.5625" font-size="25" fill="#FFFFFF"/><text text-anchor="middle" pointer-events="none" font-family="sans-serif" dy="1.5625" font-size="25" fill="#FFFFFF"/><text text-anchor="middle" pointer-events="none" y="0" font-size="10px" fill="#FFFFFF" font-family="sans-serif"> Tom</text><text text-anchor="middle" pointer-events="none" y="10" font-size="10px" fill="#FFFFFF" font-family="sans-serif"> Hanks</text></g><g class="node" transform="translate(311.24796527495977,186.61645231282694)"><circle class="outline" cx="0" cy="0" r="25" fill="#F16667" stroke="#eb2728" stroke-width="2px"/><text text-anchor="middle" pointer-events="none" font-family="sans-serif" dy="1.5625" font-size="25" fill="#FFFFFF"/><text text-anchor="middle" pointer-events="none" font-family="sans-serif" dy="1.5625" font-size="25" fill="#FFFFFF"/><text text-anchor="middle" pointer-events="none" y="0" font-size="10px" fill="#FFFFFF" font-family="sans-serif"> Jim</text><text text-anchor="middle" pointer-events="none" y="10" font-size="10px" fill="#FFFFFF" font-family="sans-serif"> Broadb…</text></g><g class="node" transform="translate(327.652793616889,92.78888791658835)"><circle class="outline" cx="0" cy="0" r="25" fill="#F16667" stroke="#eb2728" stroke-width="2px"/><text text-anchor="middle" pointer-events="none" font-family="sans-serif" dy="1.5625" font-size="25" fill="#FFFFFF"/><text text-anchor="middle" pointer-events="none" font-family="sans-serif" dy="1.5625" font-size="25" fill="#FFFFFF"/><text text-anchor="middle" pointer-events="none" y="0" font-size="10px" fill="#FFFFFF" font-family="sans-serif"> Halle</text><text text-anchor="middle" pointer-events="none" y="10" font-size="10px" fill="#FFFFFF" font-family="sans-serif"> Berry</text></g><g class="node" transform="translate(127.47580384746914,92.05226214051021)"><circle class="outline" cx="0" cy="0" r="25" fill="#D9C8AE" stroke="#c0a378" stroke-width="2px"/><text text-anchor="middle" pointer-events="none" font-family="sans-serif" dy="1.5625" font-size="25" fill="#604A0E"/><text text-anchor="middle" pointer-events="none" font-family="sans-serif" dy="1.5625" font-size="25" fill="#604A0E"/><text text-anchor="middle" pointer-events="none" y="0" font-size="10px" fill="#604A0E" font-family="sans-serif"> V for</text><text text-anchor="middle" pointer-events="none" y="10" font-size="10px" fill="#604A0E" font-family="sans-serif"> Vendetta</text></g><g class="node" transform="translate(242.7166453380646,33.75700631297916)"><circle class="outline" cx="0" cy="0" r="25" fill="#F16667" stroke="#eb2728" stroke-width="2px"/><text text-anchor="middle" pointer-events="none" font-family="sans-serif" dy="1.5625" font-size="25" fill="#FFFFFF"/><text text-anchor="middle" pointer-events="none" font-family="sans-serif" dy="1.5625" font-size="25" fill="#FFFFFF"/><text text-anchor="middle" pointer-events="none" y="0" font-size="10px" fill="#FFFFFF" font-family="sans-serif"> Stephen</text><text text-anchor="middle" pointer-events="none" y="10" font-size="10px" fill="#FFFFFF" font-family="sans-serif"> Rea</text></g><g class="node" transform="translate(202.63597287547495,-23.095874363572623)"><circle class="outline" cx="0" cy="0" r="25" fill="#F16667" stroke="#eb2728" stroke-width="2px"/><text text-anchor="middle" pointer-events="none" font-family="sans-serif" dy="1.5625" font-size="25" fill="#FFFFFF"/><text text-anchor="middle" pointer-events="none" font-family="sans-serif" dy="1.5625" font-size="25" fill="#FFFFFF"/><text text-anchor="middle" pointer-events="none" y="0" font-size="10px" fill="#FFFFFF" font-family="sans-serif"> Natalie</text><text text-anchor="middle" pointer-events="none" y="10" font-size="10px" fill="#FFFFFF" font-family="sans-serif"> Portman</text></g><g class="node" transform="translate(136.8986618099994,-44.79715235766744)"><circle class="outline" cx="0" cy="0" r="25" fill="#F16667" stroke="#eb2728" stroke-width="2px"/><text text-anchor="middle" pointer-events="none" font-family="sans-serif" dy="1.5625" font-size="25" fill="#FFFFFF"/><text text-anchor="middle" pointer-events="none" y="5" font-size="10px" fill="#FFFFFF" font-family="sans-serif"> John Hurt</text></g><g class="node" transform="translate(68.83659137016168,-26.143502733875195)"><circle class="outline" cx="0" cy="0" r="25" fill="#F16667" stroke="#eb2728" stroke-width="2px"/><text text-anchor="middle" pointer-events="none" font-family="sans-serif" dy="1.5625" font-size="25" fill="#FFFFFF"/><text text-anchor="middle" pointer-events="none" y="5" font-size="10px" fill="#FFFFFF" font-family="sans-serif"> Ben Miles</text></g><g class="node" transform="translate(-69.6017050696849,20.340457832242492)"><circle class="outline" cx="0" cy="0" r="25" fill="#D9C8AE" stroke="#c0a378" stroke-width="2px"/><text text-anchor="middle" pointer-events="none" font-family="sans-serif" dy="1.5625" font-size="25" fill="#604A0E"/><text text-anchor="middle" pointer-events="none" font-family="sans-serif" dy="1.5625" font-size="25" fill="#604A0E"/><text text-anchor="middle" pointer-events="none" font-family="sans-serif" dy="1.5625" font-size="25" fill="#604A0E"/><text text-anchor="middle" pointer-events="none" y="-5" font-size="10px" fill="#604A0E" font-family="sans-serif"> The</text><text text-anchor="middle" pointer-events="none" y="5" font-size="10px" fill="#604A0E" font-family="sans-serif"> Matrix</text><text text-anchor="middle" pointer-events="none" y="15" font-size="10px" fill="#604A0E" font-family="sans-serif"> Revol…</text></g><g class="node" transform="translate(-72.98924669780358,114.45056943463399)"><circle class="outline" cx="0" cy="0" r="25" fill="#F16667" stroke="#eb2728" stroke-width="2px"/><text text-anchor="middle" pointer-events="none" font-family="sans-serif" dy="1.5625" font-size="25" fill="#FFFFFF"/><text text-anchor="middle" pointer-events="none" font-family="sans-serif" dy="1.5625" font-size="25" fill="#FFFFFF"/><text text-anchor="middle" pointer-events="none" y="0" font-size="10px" fill="#FFFFFF" font-family="sans-serif"> Keanu</text><text text-anchor="middle" pointer-events="none" y="10" font-size="10px" fill="#FFFFFF" font-family="sans-serif"> Reeves</text></g><g class="node" transform="translate(-131.80240048115803,102.72912325232899)"><circle class="outline" cx="0" cy="0" r="25" fill="#F16667" stroke="#eb2728" stroke-width="2px"/><text text-anchor="middle" pointer-events="none" font-family="sans-serif" dy="1.5625" font-size="25" fill="#FFFFFF"/><text text-anchor="middle" pointer-events="none" y="5" font-size="10px" fill="#FFFFFF" font-family="sans-serif"> Carrie-A…</text></g><g class="node" transform="translate(-151.55984748817647,159.26300016336785)"><circle class="outline" cx="0" cy="0" r="25" fill="#F16667" stroke="#eb2728" stroke-width="2px"/><text text-anchor="middle" pointer-events="none" font-family="sans-serif" dy="1.5625" font-size="25" fill="#FFFFFF"/><text text-anchor="middle" pointer-events="none" font-family="sans-serif" dy="1.5625" font-size="25" fill="#FFFFFF"/><text text-anchor="middle" pointer-events="none" y="0" font-size="10px" fill="#FFFFFF" font-family="sans-serif"> Laurence</text><text text-anchor="middle" pointer-events="none" y="10" font-size="10px" fill="#FFFFFF" font-family="sans-serif"> Fishbur…</text></g><g class="node" transform="translate(-82.68345809637205,214.22052212201206)"><circle class="outline" cx="0" cy="0" r="25" fill="#D9C8AE" stroke="#c0a378" stroke-width="2px"/><text text-anchor="middle" pointer-events="none" font-family="sans-serif" dy="1.5625" font-size="25" fill="#604A0E"/><text text-anchor="middle" pointer-events="none" font-family="sans-serif" dy="1.5625" font-size="25" fill="#604A0E"/><text text-anchor="middle" pointer-events="none" font-family="sans-serif" dy="1.5625" font-size="25" fill="#604A0E"/><text text-anchor="middle" pointer-events="none" y="-5" font-size="10px" fill="#604A0E" font-family="sans-serif"> The</text><text text-anchor="middle" pointer-events="none" y="5" font-size="10px" fill="#604A0E" font-family="sans-serif"> Matrix</text><text text-anchor="middle" pointer-events="none" y="15" font-size="10px" fill="#604A0E" font-family="sans-serif"> Reloa…</text></g><g class="node" transform="translate(-24.966417989146812,198.10668266492434)"><circle class="outline" cx="0" cy="0" r="25" fill="#D9C8AE" stroke="#c0a378" stroke-width="2px"/><text text-anchor="middle" pointer-events="none" font-family="sans-serif" dy="1.5625" font-size="25" fill="#604A0E"/><text text-anchor="middle" pointer-events="none" font-family="sans-serif" dy="1.5625" font-size="25" fill="#604A0E"/><text text-anchor="middle" pointer-events="none" y="0" font-size="10px" fill="#604A0E" font-family="sans-serif"> The</text><text text-anchor="middle" pointer-events="none" y="10" font-size="10px" fill="#604A0E" font-family="sans-serif"> Matrix</text></g><g class="node" transform="translate(100.16701357816724,188.1740643707759)"><circle class="outline" cx="0" cy="0" r="25" fill="#F16667" stroke="#eb2728" stroke-width="2px"/><text text-anchor="middle" pointer-events="none" font-family="sans-serif" dy="1.5625" font-size="25" fill="#FFFFFF"/><text text-anchor="middle" pointer-events="none" font-family="sans-serif" dy="1.5625" font-size="25" fill="#FFFFFF"/><text text-anchor="middle" pointer-events="none" y="0" font-size="10px" fill="#FFFFFF" font-family="sans-serif"> Emil</text><text text-anchor="middle" pointer-events="none" y="10" font-size="10px" fill="#FFFFFF" font-family="sans-serif"> Eifrem</text></g></g></svg>