<svg xmlns="http://www.w3.org/2000/svg" width="255.77317810058594" height="253.68173217773438" viewBox="124.65422058105469 7.187892913818359 255.77317810058594 253.68173217773438"><title>Neo4j Graph Visualization</title><desc>Created using Neo4j (http://www.neo4j.com/)</desc><g class="layer relationships"><g class="relationship" transform="translate(351.4273926773459 204.54625215032763) rotate(268.9636619492158)"><path class="outline" fill="#A5ABB6" stroke="none" d="M 21.40063509461097,12.933012701892217 L 21.90063509461097,12.06698729810778 A 52.49657303845657 52.49657303845657 0 0 0 21.999038301576103,12.123658600553114 L 21.500912770732274,12.990763528183876 A 53.49657303845657 53.49657303845657 0 0 1 21.40063509461097,12.933012701892217 Z M 71.68902529875965,14.642635219416178 L 71.2489951744375,13.744652207500557 A 52.49657303845657 52.49657303845657 0 0 0 71.35091188743947,13.694574155694006 L 70.02499732212469,11.003486909712166 L 77.85110122228289,11.04928804428983 L 73.11879797452583,17.282690483669793 L 71.79288340921106,14.591603237687952 A 53.49657303845657 53.49657303845657 0 0 1 71.68902529875965,14.642635219416178"/><text text-anchor="middle" pointer-events="none" font-size="8px" fill="#000000" x="46.40555740613915" y="22.571512039391166" transform="rotate(180 46.40555740613915 19.571512039391166)" font-family="sans-serif">PRODUCED</text></g><g class="relationship" transform="translate(351.4273926773459 204.54625215032763) rotate(268.9636619492158)"><path class="outline" fill="#A5ABB6" stroke="none" d="M 25 0.5 L 27.193101636065784 0.5 L 27.193101636065784 -0.5 L 25 -0.5 Z M 66.08372663606579 0.5 L 68.27682827213157 0.5 L 68.27682827213157 3.5 L 75.27682827213157 0 L 68.27682827213157 -3.5 L 68.27682827213157 -0.5 L 66.08372663606579 -0.5 Z"/><text text-anchor="middle" pointer-events="none" font-size="8px" fill="#000000" x="46.638414136065784" y="3" transform="rotate(180 46.638414136065784 0)" font-family="sans-serif">DIREC…</text></g><g class="relationship" transform="translate(351.4273926773459 204.54625215032763) rotate(268.9636619492158)"><path class="outline" fill="#A5ABB6" stroke="none" d="M 21.40063509461097,-12.933012701892217 L 21.90063509461097,-12.06698729810778 A 52.49657303845657 52.49657303845657 0 0 1 29.145343487631415,-15.539847272314567 L 28.783346941451406,-16.472026708128162 A 53.49657303845657 53.49657303845657 0 0 0 21.40063509461097,-12.933012701892217 Z M 64.1934383979819,-17.63750045708266 L 63.893521676725584,-16.683535069706956 A 52.49657303845657 52.49657303845657 0 0 1 71.35091188743947,-13.694574155694006 L 70.02499732212469,-11.003486909712166 L 77.85110122228289,-11.04928804428983 L 73.11879797452583,-17.282690483669793 L 71.79288340921106,-14.591603237687952 A 53.49657303845657 53.49657303845657 0 0 0 64.1934383979819,-17.63750045708266"/><text text-anchor="middle" pointer-events="none" font-size="8px" fill="#000000" x="46.40555740613914" y="-16.571512039391166" transform="rotate(180 46.40555740613914 -19.571512039391166)" font-family="sans-serif">WROTE</text></g><g class="relationship" transform="translate(256.6741160066057 36.18789271517046) rotate(451.1052784423019)"><path class="outline" fill="#A5ABB6" stroke="none" d="M 24.018736134675446,6.953439040707552 L 24.277555179777966,5.987513214418485 A 92.9347023838797 92.9347023838797 0 0 0 29.111780253538335,7.145207466365676 L 28.90497864594578,8.123590364364787 A 93.9347023838797 93.9347023838797 0 0 1 24.018736134675446,6.953439040707552 Z M 64.64549708589368,8.726563875750273 L 64.47181610789302,7.741761906885088 A 92.9347023838797 92.9347023838797 0 0 0 69.34234156613454,6.747795204532163 L 68.66407451670612,3.8254752683068913 L 76.27413259223157,5.652225411903416 L 70.24669763203907,10.644221786165858 L 69.56843058261066,7.721901849940587 A 93.9347023838797 93.9347023838797 0 0 1 64.64549708589368,8.726563875750273"/><text text-anchor="middle" pointer-events="none" font-size="8px" fill="#000000" x="46.75472601103429" y="12.640892266042826" transform="rotate(180 46.75472601103429 9.640892266042826)" font-family="sans-serif">WROTE</text></g><g class="relationship" transform="translate(256.6741160066057 36.18789271517046) rotate(451.1052784423019)"><path class="outline" fill="#A5ABB6" stroke="none" d="M 24.018736134675446,-6.953439040707552 L 24.277555179777966,-5.987513214418485 A 92.9347023838797 92.9347023838797 0 0 1 25.236107618819798,-6.238886849073282 L 24.987602831087816,-7.207517516807002 A 93.9347023838797 93.9347023838797 0 0 0 24.018736134675446,-6.953439040707552 Z M 68.59154465019769,-7.9431537934070064 L 68.37585526141635,-6.966691767741324 A 92.9347023838797 92.9347023838797 0 0 1 69.34234156613454,-6.747795204532163 L 68.66407451670612,-3.8254752683068913 L 76.27413259223157,-5.652225411903416 L 70.24669763203907,-10.644221786165858 L 69.56843058261066,-7.721901849940587 A 93.9347023838797 93.9347023838797 0 0 0 68.59154465019769,-7.9431537934070064"/><text text-anchor="middle" pointer-events="none" font-size="8px" fill="#000000" x="46.75472601103429" y="-6.640892266042826" transform="rotate(180 46.75472601103429 -9.640892266042826)" font-family="sans-serif">DIRECT…</text></g><g class="relationship" transform="translate(267.07314827345425 231.86960955302132) rotate(262.60464164165796)"><path class="outline" fill="#A5ABB6" stroke="none" d="M 24.018736134675446,6.953439040707552 L 24.277555179777966,5.987513214418485 A 83.36749130959603 83.36749130959603 0 0 0 25.268918843082123,6.2466290940301405 L 25.02199128766858,7.215663036870893 A 84.36749130959603 84.36749130959603 0 0 1 24.018736134675446,6.953439040707552 Z M 63.7888511774498,7.899999204675353 L 63.57627876091891,6.922853889110556 A 83.36749130959603 83.36749130959603 0 0 0 64.57617006211103,6.698888852136154 L 63.90247147427183,3.775512343243832 L 71.50966501416632,5.614154898660057 L 65.47443484589664,10.596724197325916 L 64.80073625805744,7.673347688433594 A 84.36749130959603 84.36749130959603 0 0 1 63.7888511774498,7.899999204675353"/><text text-anchor="middle" pointer-events="none" font-size="8px" fill="#000000" x="44.37440036934139" y="12.315127482710352" transform="rotate(180 44.37440036934139 9.315127482710352)" font-family="sans-serif">DIREC…</text></g><g class="relationship" transform="translate(267.07314827345425 231.86960955302132) rotate(262.60464164165796)"><path class="outline" fill="#A5ABB6" stroke="none" d="M 24.018736134675446,-6.953439040707552 L 24.277555179777966,-5.987513214418485 A 83.36749130959603 83.36749130959603 0 0 1 26.77371310378464,-6.615222444777785 L 26.54483568082758,-7.5886776955523345 A 84.36749130959603 84.36749130959603 0 0 0 24.018736134675446,-6.953439040707552 Z M 62.25379030924311,-8.219033861519634 L 62.05941282590721,-7.238107057944575 A 83.36749130959603 83.36749130959603 0 0 1 64.57617006211103,-6.698888852136154 L 63.90247147427183,-3.775512343243832 L 71.50966501416632,-5.614154898660057 L 65.47443484589664,-10.596724197325916 L 64.80073625805744,-7.673347688433594 A 84.36749130959603 84.36749130959603 0 0 0 62.25379030924311,-8.219033861519634"/><text text-anchor="middle" pointer-events="none" font-size="8px" fill="#000000" x="44.37440036934135" y="-6.315127482710352" transform="rotate(180 44.37440036934135 -9.315127482710352)" font-family="sans-serif">WROTE</text></g><g class="relationship" transform="translate(156.0750201236782 89.60544420837738) rotate(451.22809839795116)"><path class="outline" fill="#A5ABB6" stroke="none" d="M 21.40063509461097,12.933012701892217 L 21.90063509461097,12.06698729810778 A 65.61521487562213 65.61521487562213 0 0 0 27.893107145085644,15.128310073252308 L 27.48443462243726,16.040991161712128 A 66.61521487562213 66.61521487562213 0 0 1 21.40063509461097,12.933012701892217 Z M 78.31204843299382,17.535779928333028 L 77.95771788036191,16.60065969035741 A 65.61521487562213 65.61521487562213 0 0 0 84.1197384672581,13.896788262939637 L 82.77501243120439,11.215051533139476 L 90.6012451761341,11.206050300447657 L 85.91270651532973,17.472437236006517 L 84.56798047927602,14.790700506206356 A 66.61521487562213 66.61521487562213 0 0 1 78.31204843299382,17.535779928333028"/><text text-anchor="middle" pointer-events="none" font-size="8px" fill="#000000" x="52.764701156674505" y="24.329186599298424" transform="rotate(180 52.764701156674505 21.329186599298424)" font-family="sans-serif">PRODUCED</text></g><g class="relationship" transform="translate(156.0750201236782 89.60544420837738) rotate(451.22809839795116)"><path class="outline" fill="#A5ABB6" stroke="none" d="M 25 0.5 L 29.529213128901063 0.5 L 29.529213128901063 -0.5 L 25 -0.5 Z M 76.41983812890106 0.5 L 80.94905125780213 0.5 L 80.94905125780213 3.5 L 87.94905125780213 0 L 80.94905125780213 -3.5 L 80.94905125780213 -0.5 L 76.41983812890106 -0.5 Z"/><text text-anchor="middle" pointer-events="none" font-size="8px" fill="#000000" x="52.97452562890106" y="3" transform="rotate(180 52.97452562890106 0)" font-family="sans-serif">DIRECTED</text></g><g class="relationship" transform="translate(156.0750201236782 89.60544420837738) rotate(451.22809839795116)"><path class="outline" fill="#A5ABB6" stroke="none" d="M 21.40063509461097,-12.933012701892217 L 21.90063509461097,-12.06698729810778 A 65.61521487562213 65.61521487562213 0 0 1 35.32143620576902,-17.928333509139854 L 35.0259741492414,-18.883687984270665 A 66.61521487562213 66.61521487562213 0 0 0 21.40063509461097,-12.933012701892217 Z M 70.61648562071099,-19.930368966465352 L 70.37767766793337,-18.959302150180207 A 65.61521487562213 65.61521487562213 0 0 1 84.1197384672581,-13.896788262939637 L 82.77501243120439,-11.215051533139476 L 90.6012451761341,-11.206050300447657 L 85.91270651532973,-17.472437236006517 L 84.56798047927602,-14.790700506206356 A 66.61521487562213 66.61521487562213 0 0 0 70.61648562071099,-19.930368966465352"/><text text-anchor="middle" pointer-events="none" font-size="8px" fill="#000000" x="52.764701156674505" y="-18.329186599298424" transform="rotate(180 52.764701156674505 -21.329186599298424)" font-family="sans-serif">WROTE</text></g></g><g class="layer nodes"><g class="node" transform="translate(351.4273926773459,204.54625215032763)"><circle class="outline" cx="0" cy="0" r="25" fill="#F16667" stroke="#eb2728" stroke-width="2px"/><text text-anchor="middle" pointer-events="none" font-family="sans-serif" dy="1.5625" font-size="25" fill="#FFFFFF"/><text text-anchor="middle" pointer-events="none" font-family="sans-serif" dy="1.5625" font-size="25" fill="#FFFFFF"/><text text-anchor="middle" pointer-events="none" y="0" font-size="10px" fill="#FFFFFF" font-family="sans-serif"> Cameron</text><text text-anchor="middle" pointer-events="none" y="10" font-size="10px" fill="#FFFFFF" font-family="sans-serif"> Crowe</text></g><g class="node" transform="translate(349.61373332388587,104.2858266172781)"><circle class="outline" cx="0" cy="0" r="25" fill="#D9C8AE" stroke="#c0a378" stroke-width="2px"/><text text-anchor="middle" pointer-events="none" font-family="sans-serif" dy="1.5625" font-size="25" fill="#604A0E"/><text text-anchor="middle" pointer-events="none" font-family="sans-serif" dy="1.5625" font-size="25" fill="#604A0E"/><text text-anchor="middle" pointer-events="none" y="0" font-size="10px" fill="#604A0E" font-family="sans-serif"> Jerry</text><text text-anchor="middle" pointer-events="none" y="10" font-size="10px" fill="#604A0E" font-family="sans-serif"> Maguire</text></g><g class="node" transform="translate(256.6741160066057,36.18789271517046)"><circle class="outline" cx="0" cy="0" r="25" fill="#F16667" stroke="#eb2728" stroke-width="2px"/><text text-anchor="middle" pointer-events="none" font-family="sans-serif" dy="1.5625" font-size="25" fill="#FFFFFF"/><text text-anchor="middle" pointer-events="none" font-family="sans-serif" dy="1.5625" font-size="25" fill="#FFFFFF"/><text text-anchor="middle" pointer-events="none" y="0" font-size="10px" fill="#FFFFFF" font-family="sans-serif"> Lana</text><text text-anchor="middle" pointer-events="none" y="10" font-size="10px" fill="#FFFFFF" font-family="sans-serif"> Wacho…</text></g><g class="node" transform="translate(254.73307018645926,136.79596874914122)"><circle class="outline" cx="0" cy="0" r="25" fill="#D9C8AE" stroke="#c0a378" stroke-width="2px"/><text text-anchor="middle" pointer-events="none" font-family="sans-serif" dy="1.5625" font-size="25" fill="#604A0E"/><text text-anchor="middle" pointer-events="none" font-family="sans-serif" dy="1.5625" font-size="25" fill="#604A0E"/><text text-anchor="middle" pointer-events="none" y="0" font-size="10px" fill="#604A0E" font-family="sans-serif"> Speed</text><text text-anchor="middle" pointer-events="none" y="10" font-size="10px" fill="#604A0E" font-family="sans-serif"> Racer</text></g><g class="node" transform="translate(267.07314827345425,231.86960955302132)"><circle class="outline" cx="0" cy="0" r="25" fill="#F16667" stroke="#eb2728" stroke-width="2px"/><text text-anchor="middle" pointer-events="none" font-family="sans-serif" dy="1.5625" font-size="25" fill="#FFFFFF"/><text text-anchor="middle" pointer-events="none" font-family="sans-serif" dy="1.5625" font-size="25" fill="#FFFFFF"/><text text-anchor="middle" pointer-events="none" y="0" font-size="10px" fill="#FFFFFF" font-family="sans-serif"> Andy</text><text text-anchor="middle" pointer-events="none" y="10" font-size="10px" fill="#FFFFFF" font-family="sans-serif"> Wacho…</text></g><g class="node" transform="translate(156.0750201236782,89.60544420837738)"><circle class="outline" cx="0" cy="0" r="25" fill="#F16667" stroke="#eb2728" stroke-width="2px"/><text text-anchor="middle" pointer-events="none" font-family="sans-serif" dy="1.5625" font-size="25" fill="#FFFFFF"/><text text-anchor="middle" pointer-events="none" font-family="sans-serif" dy="1.5625" font-size="25" fill="#FFFFFF"/><text text-anchor="middle" pointer-events="none" y="0" font-size="10px" fill="#FFFFFF" font-family="sans-serif"> Nancy</text><text text-anchor="middle" pointer-events="none" y="10" font-size="10px" fill="#FFFFFF" font-family="sans-serif"> Meyers</text></g><g class="node" transform="translate(153.6542148073085,202.52855026580855)"><circle class="outline" cx="0" cy="0" r="25" fill="#D9C8AE" stroke="#c0a378" stroke-width="2px"/><text text-anchor="middle" pointer-events="none" font-family="sans-serif" dy="1.5625" font-size="25" fill="#604A0E"/><text text-anchor="middle" pointer-events="none" y="5" font-size="10px" fill="#604A0E" font-family="sans-serif"> Somethi…</text></g></g></svg>