<svg xmlns="http://www.w3.org/2000/svg" width="222.12257385253906" height="202.8247528076172" viewBox="6.9605865478515625 3.973529815673828 222.12257385253906 202.8247528076172"><title>Neo4j Graph Visualization</title><desc>Created using Neo4j (http://www.neo4j.com/)</desc><g class="layer relationships"><g class="relationship" transform="translate(103.45855053322529 177.79827815584238) rotate(331.4358081798149)"><path class="outline" fill="#A5ABB6" stroke="none" d="M 25 0.5 L 28.72648301910923 0.5 L 28.72648301910923 -0.5 L 25 -0.5 Z M 74.28898301910922 0.5 L 78.01546603821846 0.5 L 78.01546603821846 3.5 L 85.01546603821846 0 L 78.01546603821846 -3.5 L 78.01546603821846 -0.5 L 74.28898301910922 -0.5 Z"/><text text-anchor="middle" pointer-events="none" font-size="8px" fill="#000000" x="51.50773301910923" y="3" font-family="sans-serif">ACTED_IN</text></g><g class="relationship" transform="translate(140.26125304676052 32.97353031689422) rotate(417.0295157437624)"><path class="outline" fill="#A5ABB6" stroke="none" d="M 25 0.5 L 28.681205749830397 0.5 L 28.681205749830397 -0.5 L 25 -0.5 Z M 74.2437057498304 0.5 L 77.9249114996608 0.5 L 77.9249114996608 3.5 L 84.9249114996608 0 L 77.9249114996608 -3.5 L 77.9249114996608 -0.5 L 74.2437057498304 -0.5 Z"/><text text-anchor="middle" pointer-events="none" font-size="8px" fill="#000000" x="51.4624557498304" y="3" font-family="sans-serif">ACTED_IN</text></g><g class="relationship" transform="translate(103.45855053322529 177.79827815584238) rotate(246.57705647280557)"><path class="outline" fill="#A5ABB6" stroke="none" d="M 25 0.5 L 39.88925512280615 0.5 L 39.88925512280615 -0.5 L 25 -0.5 Z M 85.45175512280615 0.5 L 100.3410102456123 0.5 L 100.3410102456123 3.5 L 107.3410102456123 0 L 100.3410102456123 -3.5 L 100.3410102456123 -0.5 L 85.45175512280615 -0.5 Z"/><text text-anchor="middle" pointer-events="none" font-size="8px" fill="#000000" x="62.67050512280615" y="3" transform="rotate(180 62.67050512280615 0)" font-family="sans-serif">ACTED_IN</text></g><g class="relationship" transform="translate(140.26125304676052 32.97353031689422) rotate(525.340249401663)"><path class="outline" fill="#A5ABB6" stroke="none" d="M 25 0.5 L 25.041488018108282 0.5 L 25.041488018108282 -0.5 L 25 -0.5 Z M 60.37742551810828 0.5 L 60.418913536216564 0.5 L 60.418913536216564 3.5 L 67.41891353621656 0 L 60.418913536216564 -3.5 L 60.418913536216564 -0.5 L 60.37742551810828 -0.5 Z"/><text text-anchor="middle" pointer-events="none" font-size="8px" fill="#000000" x="42.70945676810828" y="3" transform="rotate(180 42.70945676810828 0)" font-family="sans-serif">ACTE…</text></g><g class="relationship" transform="translate(103.45855053322529 177.79827815584238) rotate(223.190550145418)"><path class="outline" fill="#A5ABB6" stroke="none" d="M 25 0.5 L 25.12175464410707 0.5 L 25.12175464410707 -0.5 L 25 -0.5 Z M 60.45769214410707 0.5 L 60.57944678821414 0.5 L 60.57944678821414 3.5 L 67.57944678821414 0 L 60.57944678821414 -3.5 L 60.57944678821414 -0.5 L 60.45769214410707 -0.5 Z"/><text text-anchor="middle" pointer-events="none" font-size="8px" fill="#000000" x="42.78972339410707" y="3" transform="rotate(180 42.78972339410707 0)" font-family="sans-serif">ACTE…</text></g><g class="relationship" transform="translate(140.26125304676052 32.97353031689422) rotate(502.00945838513667)"><path class="outline" fill="#A5ABB6" stroke="none" d="M 25 0.5 L 39.889939222541926 0.5 L 39.889939222541926 -0.5 L 25 -0.5 Z M 85.45243922254193 0.5 L 100.34237844508385 0.5 L 100.34237844508385 3.5 L 107.34237844508385 0 L 100.34237844508385 -3.5 L 100.34237844508385 -0.5 L 85.45243922254193 -0.5 Z"/><text text-anchor="middle" pointer-events="none" font-size="8px" fill="#000000" x="62.671189222541926" y="3" transform="rotate(180 62.671189222541926 0)" font-family="sans-serif">ACTED_IN</text></g></g><g class="layer nodes"><g class="node" transform="translate(103.45855053322529,177.79827815584238)"><circle class="outline" cx="0" cy="0" r="25" fill="#F16667" stroke="#eb2728" stroke-width="2px"/><text text-anchor="middle" pointer-events="none" font-family="sans-serif" dy="1.5625" font-size="25" fill="#FFFFFF"/><text text-anchor="middle" pointer-events="none" font-family="sans-serif" dy="1.5625" font-size="25" fill="#FFFFFF"/><text text-anchor="middle" pointer-events="none" y="0" font-size="10px" fill="#FFFFFF" font-family="sans-serif"> Hugo</text><text text-anchor="middle" pointer-events="none" y="10" font-size="10px" fill="#FFFFFF" font-family="sans-serif"> Weaving</text></g><g class="node" transform="translate(200.08315102865635,125.19514757690493)"><circle class="outline" cx="0" cy="0" r="25" fill="#D9C8AE" stroke="#c0a378" stroke-width="2px"/><text text-anchor="middle" pointer-events="none" font-family="sans-serif" dy="1.5625" font-size="25" fill="#604A0E"/><text text-anchor="middle" pointer-events="none" font-family="sans-serif" dy="1.5625" font-size="25" fill="#604A0E"/><text text-anchor="middle" pointer-events="none" font-family="sans-serif" dy="1.5625" font-size="25" fill="#604A0E"/><text text-anchor="middle" pointer-events="none" y="-5" font-size="10px" fill="#604A0E" font-family="sans-serif"> The</text><text text-anchor="middle" pointer-events="none" y="5" font-size="10px" fill="#604A0E" font-family="sans-serif"> Matrix</text><text text-anchor="middle" pointer-events="none" y="15" font-size="10px" fill="#604A0E" font-family="sans-serif"> Revol…</text></g><g class="node" transform="translate(140.26125304676052,32.97353031689422)"><circle class="outline" cx="0" cy="0" r="25" fill="#F16667" stroke="#eb2728" stroke-width="2px"/><text text-anchor="middle" pointer-events="none" font-family="sans-serif" dy="1.5625" font-size="25" fill="#FFFFFF"/><text text-anchor="middle" pointer-events="none" font-family="sans-serif" dy="1.5625" font-size="25" fill="#FFFFFF"/><text text-anchor="middle" pointer-events="none" y="0" font-size="10px" fill="#FFFFFF" font-family="sans-serif"> Keanu</text><text text-anchor="middle" pointer-events="none" y="10" font-size="10px" fill="#FFFFFF" font-family="sans-serif"> Reeves</text></g><g class="node" transform="translate(50.850965603236,56.36276028457369)"><circle class="outline" cx="0" cy="0" r="25" fill="#D9C8AE" stroke="#c0a378" stroke-width="2px"/><text text-anchor="middle" pointer-events="none" font-family="sans-serif" dy="1.5625" font-size="25" fill="#604A0E"/><text text-anchor="middle" pointer-events="none" font-family="sans-serif" dy="1.5625" font-size="25" fill="#604A0E"/><text text-anchor="middle" pointer-events="none" font-family="sans-serif" dy="1.5625" font-size="25" fill="#604A0E"/><text text-anchor="middle" pointer-events="none" y="-5" font-size="10px" fill="#604A0E" font-family="sans-serif"> The</text><text text-anchor="middle" pointer-events="none" y="5" font-size="10px" fill="#604A0E" font-family="sans-serif"> Matrix</text><text text-anchor="middle" pointer-events="none" y="15" font-size="10px" fill="#604A0E" font-family="sans-serif"> Reloa…</text></g><g class="node" transform="translate(35.96058669283996,114.43441743844441)"><circle class="outline" cx="0" cy="0" r="25" fill="#D9C8AE" stroke="#c0a378" stroke-width="2px"/><text text-anchor="middle" pointer-events="none" font-family="sans-serif" dy="1.5625" font-size="25" fill="#604A0E"/><text text-anchor="middle" pointer-events="none" font-family="sans-serif" dy="1.5625" font-size="25" fill="#604A0E"/><text text-anchor="middle" pointer-events="none" y="0" font-size="10px" fill="#604A0E" font-family="sans-serif"> The</text><text text-anchor="middle" pointer-events="none" y="10" font-size="10px" fill="#604A0E" font-family="sans-serif"> Matrix</text></g></g></svg>