<svg xmlns="http://www.w3.org/2000/svg" width="491.15216064453125" height="335.0311584472656" viewBox="-111.82176208496094 -63.96443557739258 491.15216064453125 335.0311584472656"><title>Neo4j Graph Visualization</title><desc>Created using Neo4j (http://www.neo4j.com/)</desc><g class="layer relationships"><g class="relationship" transform="translate(189.1792231271613 227.69884200132924) rotate(228.47361364075022)"><path class="outline" fill="#A5ABB6" stroke="none" d="M 25 0.5 L 27.713169575130713 0.5 L 27.713169575130713 -0.5 L 25 -0.5 Z M 63.04910707513071 0.5 L 65.76227665026143 0.5 L 65.76227665026143 3.5 L 72.76227665026143 0 L 65.76227665026143 -3.5 L 65.76227665026143 -0.5 L 63.04910707513071 -0.5 Z"/><text text-anchor="middle" pointer-events="none" font-size="8px" fill="#000000" x="45.38113832513071" y="3" transform="rotate(180 45.38113832513071 0)" font-family="sans-serif">ACTE…</text></g><g class="relationship" transform="translate(189.1792231271613 227.69884200132924) rotate(263.7614388240697)"><path class="outline" fill="#A5ABB6" stroke="none" d="M 25 0.5 L 25.634624614077758 0.5 L 25.634624614077758 -0.5 L 25 -0.5 Z M 66.74790586407775 0.5 L 67.38253047815552 0.5 L 67.38253047815552 3.5 L 74.38253047815552 0 L 67.38253047815552 -3.5 L 67.38253047815552 -0.5 L 66.74790586407775 -0.5 Z"/><text text-anchor="middle" pointer-events="none" font-size="8px" fill="#000000" x="46.19126523907776" y="3" transform="rotate(180 46.19126523907776 0)" font-family="sans-serif">ACTED…</text></g><g class="relationship" transform="translate(189.1792231271613 227.69884200132924) rotate(245.73086254209016)"><path class="outline" fill="#A5ABB6" stroke="none" d="M 25 0.5 L 46.635909826984076 0.5 L 46.635909826984076 -0.5 L 25 -0.5 Z M 92.19840982698408 0.5 L 113.83431965396815 0.5 L 113.83431965396815 3.5 L 120.83431965396815 0 L 113.83431965396815 -3.5 L 113.83431965396815 -0.5 L 92.19840982698408 -0.5 Z"/><text text-anchor="middle" pointer-events="none" font-size="8px" fill="#000000" x="69.41715982698408" y="3" transform="rotate(180 69.41715982698408 0)" font-family="sans-serif">ACTED_IN</text></g><g class="relationship" transform="translate(241.85732771744372 71.47683907796264) rotate(376.6678683338918)"><path class="outline" fill="#A5ABB6" stroke="none" d="M 25 0.5 L 30.33407652822789 0.5 L 30.33407652822789 -0.5 L 25 -0.5 Z M 75.89657652822788 0.5 L 81.23065305645578 0.5 L 81.23065305645578 3.5 L 88.23065305645578 0 L 81.23065305645578 -3.5 L 81.23065305645578 -0.5 L 75.89657652822788 -0.5 Z"/><text text-anchor="middle" pointer-events="none" font-size="8px" fill="#000000" x="53.11532652822789" y="3" font-family="sans-serif">ACTED_IN</text></g><g class="relationship" transform="translate(241.85732771744372 71.47683907796264) rotate(497.86455282409685)"><path class="outline" fill="#A5ABB6" stroke="none" d="M 25 0.5 L 26.74351532232236 0.5 L 26.74351532232236 -0.5 L 25 -0.5 Z M 51.85679657232236 0.5 L 53.60031189464472 0.5 L 53.60031189464472 3.5 L 60.60031189464472 0 L 53.60031189464472 -3.5 L 53.60031189464472 -0.5 L 51.85679657232236 -0.5 Z"/><text text-anchor="middle" pointer-events="none" font-size="8px" fill="#000000" x="39.30015594732236" y="3" transform="rotate(180 39.30015594732236 0)" font-family="sans-serif">AC…</text></g><g class="relationship" transform="translate(241.85732771744372 71.47683907796264) rotate(295.4779668222537)"><path class="outline" fill="#A5ABB6" stroke="none" d="M 25 0.5 L 32.67260430162598 0.5 L 32.67260430162598 -0.5 L 25 -0.5 Z M 78.23510430162598 0.5 L 85.90770860325196 0.5 L 85.90770860325196 3.5 L 92.90770860325196 0 L 85.90770860325196 -3.5 L 85.90770860325196 -0.5 L 78.23510430162598 -0.5 Z"/><text text-anchor="middle" pointer-events="none" font-size="8px" fill="#000000" x="55.45385430162598" y="3" font-family="sans-serif">ACTED_IN</text></g><g class="relationship" transform="translate(241.85732771744372 71.47683907796264) rotate(528.3227061487388)"><path class="outline" fill="#A5ABB6" stroke="none" d="M 25 0.5 L 31.218526222477323 0.5 L 31.218526222477323 -0.5 L 25 -0.5 Z M 76.78102622247732 0.5 L 82.99955244495465 0.5 L 82.99955244495465 3.5 L 89.99955244495465 0 L 82.99955244495465 -3.5 L 82.99955244495465 -0.5 L 76.78102622247732 -0.5 Z"/><text text-anchor="middle" pointer-events="none" font-size="8px" fill="#000000" x="53.99977622247732" y="3" transform="rotate(180 53.99977622247732 0)" font-family="sans-serif">ACTED_IN</text></g><g class="relationship" transform="translate(241.85732771744372 71.47683907796264) rotate(504.750730490621)"><path class="outline" fill="#A5ABB6" stroke="none" d="M 25 0.5 L 45.65361699523956 0.5 L 45.65361699523956 -0.5 L 25 -0.5 Z M 91.21611699523956 0.5 L 111.86973399047912 0.5 L 111.86973399047912 3.5 L 118.86973399047912 0 L 111.86973399047912 -3.5 L 111.86973399047912 -0.5 L 91.21611699523956 -0.5 Z"/><text text-anchor="middle" pointer-events="none" font-size="8px" fill="#000000" x="68.43486699523956" y="3" transform="rotate(180 68.43486699523956 0)" font-family="sans-serif">ACTED_IN</text></g><g class="relationship" transform="translate(139.53675431417332 13.407529639150933) rotate(457.2156435401475)"><path class="outline" fill="#A5ABB6" stroke="none" d="M 25 0.5 L 27.829275569841883 0.5 L 27.829275569841883 -0.5 L 25 -0.5 Z M 47.16521306984188 0.5 L 49.994488639683766 0.5 L 49.994488639683766 3.5 L 56.994488639683766 0 L 49.994488639683766 -3.5 L 49.994488639683766 -0.5 L 47.16521306984188 -0.5 Z"/><text text-anchor="middle" pointer-events="none" font-size="8px" fill="#000000" x="37.49724431984188" y="3" transform="rotate(180 37.49724431984188 0)" font-family="sans-serif">A…</text></g><g class="relationship" transform="translate(139.53675431417332 13.407529639150933) rotate(431.41177191212944)"><path class="outline" fill="#A5ABB6" stroke="none" d="M 25 0.5 L 34.64573158970883 0.5 L 34.64573158970883 -0.5 L 25 -0.5 Z M 80.20823158970883 0.5 L 89.85396317941766 0.5 L 89.85396317941766 3.5 L 96.85396317941766 0 L 89.85396317941766 -3.5 L 89.85396317941766 -0.5 L 80.20823158970883 -0.5 Z"/><text text-anchor="middle" pointer-events="none" font-size="8px" fill="#000000" x="57.42698158970883" y="3" font-family="sans-serif">ACTED_IN</text></g><g class="relationship" transform="translate(139.53675431417332 13.407529639150933) rotate(456.13656563056196)"><path class="outline" fill="#A5ABB6" stroke="none" d="M 25 0.5 L 44.67610922737397 0.5 L 44.67610922737397 -0.5 L 25 -0.5 Z M 90.23860922737397 0.5 L 109.91471845474794 0.5 L 109.91471845474794 3.5 L 116.91471845474794 0 L 109.91471845474794 -3.5 L 109.91471845474794 -0.5 L 90.23860922737397 -0.5 Z"/><text text-anchor="middle" pointer-events="none" font-size="8px" fill="#000000" x="67.45735922737397" y="3" transform="rotate(180 67.45735922737397 0)" font-family="sans-serif">ACTED_IN</text></g><g class="relationship" transform="translate(29.74840939152764 125.95779324966028) rotate(246.17854560984648)"><path class="outline" fill="#A5ABB6" stroke="none" d="M 25 0.5 L 36.572867490741 0.5 L 36.572867490741 -0.5 L 25 -0.5 Z M 82.135367490741 0.5 L 93.708234981482 0.5 L 93.708234981482 3.5 L 100.708234981482 0 L 93.708234981482 -3.5 L 93.708234981482 -0.5 L 82.135367490741 -0.5 Z"/><text text-anchor="middle" pointer-events="none" font-size="8px" fill="#000000" x="59.354117490741" y="3" transform="rotate(180 59.354117490741 0)" font-family="sans-serif">ACTED_IN</text></g><g class="relationship" transform="translate(29.74840939152764 125.95779324966028) rotate(361.13591165709494)"><path class="outline" fill="#A5ABB6" stroke="none" d="M 25 0.5 L 48.04889299642653 0.5 L 48.04889299642653 -0.5 L 25 -0.5 Z M 93.61139299642653 0.5 L 116.66028599285306 0.5 L 116.66028599285306 3.5 L 123.66028599285306 0 L 116.66028599285306 -3.5 L 116.66028599285306 -0.5 L 93.61139299642653 -0.5 Z"/><text text-anchor="middle" pointer-events="none" font-size="8px" fill="#000000" x="70.83014299642653" y="3" font-family="sans-serif">ACTED_IN</text></g><g class="relationship" transform="translate(29.74840939152764 125.95779324966028) rotate(342.5858343018782)"><path class="outline" fill="#A5ABB6" stroke="none" d="M 25 0.5 L 25.85300248433024 0.5 L 25.85300248433024 -0.5 L 25 -0.5 Z M 71.41550248433023 0.5 L 72.26850496866048 0.5 L 72.26850496866048 3.5 L 79.26850496866048 0 L 72.26850496866048 -3.5 L 72.26850496866048 -0.5 L 71.41550248433023 -0.5 Z"/><text text-anchor="middle" pointer-events="none" font-size="8px" fill="#000000" x="48.63425248433024" y="3" font-family="sans-serif">ACTED_IN</text></g><g class="relationship" transform="translate(29.74840939152764 125.95779324966028) rotate(376.7913742611263)"><path class="outline" fill="#A5ABB6" stroke="none" d="M 25 0.5 L 25.35923215351341 0.5 L 25.35923215351341 -0.5 L 25 -0.5 Z M 66.4725134035134 0.5 L 66.83174555702682 0.5 L 66.83174555702682 3.5 L 73.83174555702682 0 L 66.83174555702682 -3.5 L 66.83174555702682 -0.5 L 66.4725134035134 -0.5 Z"/><text text-anchor="middle" pointer-events="none" font-size="8px" fill="#000000" x="45.91587277851341" y="3" font-family="sans-serif">ACTED…</text></g><g class="relationship" transform="translate(29.74840939152764 125.95779324966028) rotate(202.26715870621496)"><path class="outline" fill="#A5ABB6" stroke="none" d="M 25 0.5 L 34.53941067523955 0.5 L 34.53941067523955 -0.5 L 25 -0.5 Z M 80.10191067523955 0.5 L 89.6413213504791 0.5 L 89.6413213504791 3.5 L 96.6413213504791 0 L 89.6413213504791 -3.5 L 89.6413213504791 -0.5 L 80.10191067523955 -0.5 Z"/><text text-anchor="middle" pointer-events="none" font-size="8px" fill="#000000" x="57.32066067523955" y="3" transform="rotate(180 57.32066067523955 0)" font-family="sans-serif">ACTED_IN</text></g><g class="relationship" transform="translate(29.74840939152764 125.95779324966028) rotate(516.3439775139647)"><path class="outline" fill="#A5ABB6" stroke="none" d="M 25 0.5 L 33.814080046133235 0.5 L 33.814080046133235 -0.5 L 25 -0.5 Z M 79.37658004613323 0.5 L 88.19066009226647 0.5 L 88.19066009226647 3.5 L 95.19066009226647 0 L 88.19066009226647 -3.5 L 88.19066009226647 -0.5 L 79.37658004613323 -0.5 Z"/><text text-anchor="middle" pointer-events="none" font-size="8px" fill="#000000" x="56.595330046133235" y="3" transform="rotate(180 56.595330046133235 0)" font-family="sans-serif">ACTED_IN</text></g><g class="relationship" transform="translate(29.74840939152764 125.95779324966028) rotate(468.9233030907317)"><path class="outline" fill="#A5ABB6" stroke="none" d="M 25 0.5 L 35.09012380337852 0.5 L 35.09012380337852 -0.5 L 25 -0.5 Z M 80.65262380337852 0.5 L 90.74274760675704 0.5 L 90.74274760675704 3.5 L 97.74274760675704 0 L 90.74274760675704 -3.5 L 90.74274760675704 -0.5 L 80.65262380337852 -0.5 Z"/><text text-anchor="middle" pointer-events="none" font-size="8px" fill="#000000" x="57.87137380337852" y="3" transform="rotate(180 57.87137380337852 0)" font-family="sans-serif">ACTED_IN</text></g></g><g class="layer nodes"><g class="node" transform="translate(189.1792231271613,227.69884200132924)"><circle class="outline" cx="0" cy="0" r="25" fill="#F16667" stroke="#eb2728" stroke-width="2px"/><text text-anchor="middle" pointer-events="none" font-family="sans-serif" dy="1.5625" font-size="25" fill="#FFFFFF"/><text text-anchor="middle" pointer-events="none" font-family="sans-serif" dy="1.5625" font-size="25" fill="#FFFFFF"/><text text-anchor="middle" pointer-events="none" y="0" font-size="10px" fill="#FFFFFF" font-family="sans-serif"> Laurence</text><text text-anchor="middle" pointer-events="none" y="10" font-size="10px" fill="#FFFFFF" font-family="sans-serif"> Fishbur…</text></g><g class="node" transform="translate(124.3662657846167,154.50906610089527)"><circle class="outline" cx="0" cy="0" r="25" fill="#D9C8AE" stroke="#c0a378" stroke-width="2px"/><text text-anchor="middle" pointer-events="none" font-family="sans-serif" dy="1.5625" font-size="25" fill="#604A0E"/><text text-anchor="middle" pointer-events="none" font-family="sans-serif" dy="1.5625" font-size="25" fill="#604A0E"/><text text-anchor="middle" pointer-events="none" font-family="sans-serif" dy="1.5625" font-size="25" fill="#604A0E"/><text text-anchor="middle" pointer-events="none" y="-5" font-size="10px" fill="#604A0E" font-family="sans-serif"> The</text><text text-anchor="middle" pointer-events="none" y="5" font-size="10px" fill="#604A0E" font-family="sans-serif"> Matrix</text><text text-anchor="middle" pointer-events="none" y="15" font-size="10px" fill="#604A0E" font-family="sans-serif"> Reloa…</text></g><g class="node" transform="translate(178.3794811444655,128.90484958605782)"><circle class="outline" cx="0" cy="0" r="25" fill="#D9C8AE" stroke="#c0a378" stroke-width="2px"/><text text-anchor="middle" pointer-events="none" font-family="sans-serif" dy="1.5625" font-size="25" fill="#604A0E"/><text text-anchor="middle" pointer-events="none" font-family="sans-serif" dy="1.5625" font-size="25" fill="#604A0E"/><text text-anchor="middle" pointer-events="none" y="0" font-size="10px" fill="#604A0E" font-family="sans-serif"> The</text><text text-anchor="middle" pointer-events="none" y="10" font-size="10px" fill="#604A0E" font-family="sans-serif"> Matrix</text></g><g class="node" transform="translate(129.23790977011518,94.75265837062787)"><circle class="outline" cx="0" cy="0" r="25" fill="#D9C8AE" stroke="#c0a378" stroke-width="2px"/><text text-anchor="middle" pointer-events="none" font-family="sans-serif" dy="1.5625" font-size="25" fill="#604A0E"/><text text-anchor="middle" pointer-events="none" font-family="sans-serif" dy="1.5625" font-size="25" fill="#604A0E"/><text text-anchor="middle" pointer-events="none" font-family="sans-serif" dy="1.5625" font-size="25" fill="#604A0E"/><text text-anchor="middle" pointer-events="none" y="-5" font-size="10px" fill="#604A0E" font-family="sans-serif"> The</text><text text-anchor="middle" pointer-events="none" y="5" font-size="10px" fill="#604A0E" font-family="sans-serif"> Matrix</text><text text-anchor="middle" pointer-events="none" y="15" font-size="10px" fill="#604A0E" font-family="sans-serif"> Revol…</text></g><g class="node" transform="translate(241.85732771744372,71.47683907796264)"><circle class="outline" cx="0" cy="0" r="25" fill="#F16667" stroke="#eb2728" stroke-width="2px"/><text text-anchor="middle" pointer-events="none" font-family="sans-serif" dy="1.5625" font-size="25" fill="#FFFFFF"/><text text-anchor="middle" pointer-events="none" font-family="sans-serif" dy="1.5625" font-size="25" fill="#FFFFFF"/><text text-anchor="middle" pointer-events="none" y="0" font-size="10px" fill="#FFFFFF" font-family="sans-serif"> Hugo</text><text text-anchor="middle" pointer-events="none" y="10" font-size="10px" fill="#FFFFFF" font-family="sans-serif"> Weaving</text></g><g class="node" transform="translate(350.3304246962532,103.95403143532708)"><circle class="outline" cx="0" cy="0" r="25" fill="#D9C8AE" stroke="#c0a378" stroke-width="2px"/><text text-anchor="middle" pointer-events="none" font-family="sans-serif" dy="1.5625" font-size="25" fill="#604A0E"/><text text-anchor="middle" pointer-events="none" font-family="sans-serif" dy="1.5625" font-size="25" fill="#604A0E"/><text text-anchor="middle" pointer-events="none" y="0" font-size="10px" fill="#604A0E" font-family="sans-serif"> Cloud</text><text text-anchor="middle" pointer-events="none" y="10" font-size="10px" fill="#604A0E" font-family="sans-serif"> Atlas</text></g><g class="node" transform="translate(292.5769762700687,-34.96443580526855)"><circle class="outline" cx="0" cy="0" r="25" fill="#D9C8AE" stroke="#c0a378" stroke-width="2px"/><text text-anchor="middle" pointer-events="none" font-family="sans-serif" dy="1.5625" font-size="25" fill="#604A0E"/><text text-anchor="middle" pointer-events="none" font-family="sans-serif" dy="1.5625" font-size="25" fill="#604A0E"/><text text-anchor="middle" pointer-events="none" y="0" font-size="10px" fill="#604A0E" font-family="sans-serif"> V for</text><text text-anchor="middle" pointer-events="none" y="10" font-size="10px" fill="#604A0E" font-family="sans-serif"> Vendetta</text></g><g class="node" transform="translate(139.53675431417332,13.407529639150933)"><circle class="outline" cx="0" cy="0" r="25" fill="#F16667" stroke="#eb2728" stroke-width="2px"/><text text-anchor="middle" pointer-events="none" font-family="sans-serif" dy="1.5625" font-size="25" fill="#FFFFFF"/><text text-anchor="middle" pointer-events="none" y="5" font-size="10px" fill="#FFFFFF" font-family="sans-serif"> Carrie-A…</text></g><g class="node" transform="translate(29.74840939152764,125.95779324966028)"><circle class="outline" cx="0" cy="0" r="25" fill="#F16667" stroke="#eb2728" stroke-width="2px"/><text text-anchor="middle" pointer-events="none" font-family="sans-serif" dy="1.5625" font-size="25" fill="#FFFFFF"/><text text-anchor="middle" pointer-events="none" font-family="sans-serif" dy="1.5625" font-size="25" fill="#FFFFFF"/><text text-anchor="middle" pointer-events="none" y="0" font-size="10px" fill="#FFFFFF" font-family="sans-serif"> Keanu</text><text text-anchor="middle" pointer-events="none" y="10" font-size="10px" fill="#FFFFFF" font-family="sans-serif"> Reeves</text></g><g class="node" transform="translate(-21.02362243847139,10.958831836902045)"><circle class="outline" cx="0" cy="0" r="25" fill="#D9C8AE" stroke="#c0a378" stroke-width="2px"/><text text-anchor="middle" pointer-events="none" font-family="sans-serif" dy="1.5625" font-size="25" fill="#604A0E"/><text text-anchor="middle" pointer-events="none" y="5" font-size="10px" fill="#604A0E" font-family="sans-serif"> Somethi…</text></g><g class="node" transform="translate(-82.8217617755491,79.864760985493)"><circle class="outline" cx="0" cy="0" r="25" fill="#D9C8AE" stroke="#c0a378" stroke-width="2px"/><text text-anchor="middle" pointer-events="none" font-family="sans-serif" dy="1.5625" font-size="25" fill="#604A0E"/><text text-anchor="middle" pointer-events="none" font-family="sans-serif" dy="1.5625" font-size="25" fill="#604A0E"/><text text-anchor="middle" pointer-events="none" font-family="sans-serif" dy="1.5625" font-size="25" fill="#604A0E"/><text text-anchor="middle" pointer-events="none" y="-5" font-size="10px" fill="#604A0E" font-family="sans-serif"> The</text><text text-anchor="middle" pointer-events="none" y="5" font-size="10px" fill="#604A0E" font-family="sans-serif"> Devil's</text><text text-anchor="middle" pointer-events="none" y="15" font-size="10px" fill="#604A0E" font-family="sans-serif"> Advoc…</text></g><g class="node" transform="translate(-80.34273044177165,174.18367534236728)"><circle class="outline" cx="0" cy="0" r="25" fill="#D9C8AE" stroke="#c0a378" stroke-width="2px"/><text text-anchor="middle" pointer-events="none" font-family="sans-serif" dy="1.5625" font-size="25" fill="#604A0E"/><text text-anchor="middle" pointer-events="none" font-family="sans-serif" dy="1.5625" font-size="25" fill="#604A0E"/><text text-anchor="middle" pointer-events="none" y="0" font-size="10px" fill="#604A0E" font-family="sans-serif"> The</text><text text-anchor="middle" pointer-events="none" y="10" font-size="10px" fill="#604A0E" font-family="sans-serif"> Replac…</text></g><g class="node" transform="translate(-10.057331129385467,242.06672964836216)"><circle class="outline" cx="0" cy="0" r="25" fill="#D9C8AE" stroke="#c0a378" stroke-width="2px"/><text text-anchor="middle" pointer-events="none" font-family="sans-serif" dy="1.5625" font-size="25" fill="#604A0E"/><text text-anchor="middle" pointer-events="none" font-family="sans-serif" dy="1.5625" font-size="25" fill="#604A0E"/><text text-anchor="middle" pointer-events="none" y="0" font-size="10px" fill="#604A0E" font-family="sans-serif"> Johnny</text><text text-anchor="middle" pointer-events="none" y="10" font-size="10px" fill="#604A0E" font-family="sans-serif"> Mnemo…</text></g></g></svg>